<?xml version="1.0" encoding="utf-8"?>
<!-- Generator: Adobe Illustrator 25.2.1, SVG Export Plug-In . SVG Version: 6.00 Build 0)  -->
<svg version="1.1" id="Calque_1" xmlns="http://www.w3.org/2000/svg" xmlns:xlink="http://www.w3.org/1999/xlink" x="0px" y="0px"
	 viewBox="0 0 800 900" style="enable-background:new 0 0 800 800;" xml:space="preserve">
<style type="text/css">
	.st0{display:none;}
	.st1{display:inline;fill:none;stroke:#010202;stroke-miterlimit:10;}
	.st2{fill:#1D3A4B;}
	.st3{fill:#FFFFFF;}
	.st4{fill:#273D4B;}
	.st5{fill:#60A533;}
	.st6{fill:#D7322A;}
	.st7{fill:#DE632B;}
	.st8{fill:#F2BA47;}
	.st9{fill:#E99D24;}
	.st10{fill:#161615;}
	.st11{fill:#E2E2E1;}
	.st12{fill:#555555;}
	.st13{fill:#27866F;}
	.st14{fill:#35A589;}
	.st15{fill:#42B598;}
	.st16{fill:#D64437;}
	.st17{fill:#2E5856;}
	.st18{fill:#F3BC35;}
	.st19{fill:#19534D;}
	.st20{fill:#252525;}
	.st21{fill:#152A35;}
	.st22{fill:#D73A32;}
	.st23{fill:#C3362D;}
	.st24{fill:#20504E;}
	.st25{fill:#19313F;}
	.st26{fill:#711C15;}
	.st27{fill:#3EA58C;}
	.st28{fill:#623B17;}
	.st29{fill:#BC7533;}
</style>
<g id="Calque_2_1_" class="st0">
	<line class="st1" x1="535.8" y1="151.9" x2="208.2" y2="488.3"/>
	<line class="st1" x1="619.3" y1="151.9" x2="346.1" y2="488.3"/>
	<line class="st1" x1="619.3" y1="227.8" x2="346.1" y2="564.2"/>
</g>
<g id="Calque_5">
</g>
<g id="Calque_3">
</g>
<g id="Calque_4">
</g>
<g id="Groupe_294" transform="translate(-76.59 -97.662)">
	<g id="Groupe_266" transform="translate(237.101 188.642)">
		<path id="Tracé_1776" class="st2" d="M526.1,456.6h5v-15.4c0-0.6,0.5-1,1-1l0,0h4c0.6,0,1,0.5,1,1c0,0,0,0,0,0v29.6
			c0,0.5-0.4,1-1,1h-11.8L526.1,456.6z"/>
		<path id="Tracé_1777" class="st3" d="M533.1,442.9h2c0.6,0,1.1-0.5,1.1-1.1c0-0.6-0.5-1.1-1.1-1.1l0,0h-2c-0.6,0-1.1,0.5-1.1,1.1
			C532,442.4,532.5,442.9,533.1,442.9L533.1,442.9z"/>
	</g>
	<path id="Tracé_1778" class="st4" d="M706.4,438.7c2,0,3.6-1.6,3.6-3.6c0-0.9-0.4-1.9-1-2.5l-47.5-47.4c-1.4-1.4-3.6-1.5-5.1-0.2
		c-1.4,1.4-1.5,3.6-0.2,5.1c0,0.1,0.1,0.1,0.2,0.2l47.5,47.4C704.5,438.4,705.4,438.7,706.4,438.7z"/>
	<path id="Tracé_1779" class="st4" d="M330.3,438.7c1,0,1.9-0.4,2.5-1.1l47.5-47.4c1.4-1.4,1.3-3.7-0.2-5.1c-1.4-1.3-3.5-1.3-4.9,0
		l-47.5,47.4c-1.4,1.4-1.4,3.7,0,5.1C328.5,438.4,329.4,438.7,330.3,438.7z"/>
	<g id="Groupe_267" transform="translate(114.449 97.662)">
		<path id="Tracé_1780" class="st5" d="M556.1,224.7c0,0-29.9-30.7-35.8-25.4s0,13.7-9,9c-9-4.8-14.3-14.9-24.5-6
			c-10.1,9-15.5,8.4-23.3,6c-7.8-2.4-11.3-14.3-20.3-9c-9,5.4-10.1,10.1-17.3,9.6c-7.2-0.6-8.4-11.3-16.1-8.4s-7.8,10.1-17.9,8.4
			c-10.1-1.8-15.5-16.1-25.1-10.1c-9.5,6-8.4,12.5-14.9,11.3c-6.6-1.2-8.4-8.4-16.1-9c-7.8-0.6-6.6,7.7-16.1,6.6
			s-15.5-16.1-26.9-10.7c-11.3,5.4-4.8,13.7-16.1,13.7s-11.3-11.9-20.3-7.7c-9,4.2-19.7,22.7-19.7,22.7L556.1,224.7z"/>
		<path id="Rectangle_122" class="st6" d="M572.2,295.4H232.9c-21,0-38-17-38-38l0,0c0-21,17-38,38-38h339.3c21,0,38,17,38,38l0,0
			C610.3,278.4,593.2,295.4,572.2,295.4z"/>
		<path id="Tracé_1781" class="st7" d="M402.6,324.5c50.6,0,101.1-3.6,151.2-10.7c22-3.1,37.3-23.5,34.2-45.6
			c-3.1-22-23.5-37.3-45.6-34.2c-92.7,13.2-186.9,13.2-279.6,0c-22-3.1-42.4,12.2-45.6,34.2c-3.1,22,12.2,42.4,34.2,45.6
			C301.5,321,352,324.5,402.6,324.5z"/>
		<path id="Tracé_1782" class="st8" d="M390.2,251.2c2.9,0,5.7,0,8.4-0.1c56.8-1.4,124.8-8.1,140-11.2c9-1.6,18.3,0.4,25.9,5.5
			c0.8,0.6,1.9,0.4,2.5-0.4c0.5-0.8,0.4-1.8-0.4-2.4c-8.4-5.8-18.7-8-28.8-6.1c-15.1,3.1-82.8,9.8-139.3,11.2
			c-37.7,0.9-87.5-4.7-117.2-8.1c-9.6-1.4-19.2-2.3-28.9-2.6c-1,0.1-1.7,1.1-1.5,2c0.1,0.9,1,1.6,1.9,1.5c2.6-0.3,13.8,1,28.1,2.6
			C308.6,246.1,353.5,251.2,390.2,251.2z"/>
		<path id="Tracé_1783" class="st9" d="M363.7,256.6c0.6,0,1.3,0,1.9-0.1c3.4-0.1,6.5-1.8,8.4-4.7c2.6-4.6,0.2-10.3-2.5-16.4
			c-2-4.8-4.4-10.1-3-12.9c1-1.5,2.6-2.5,4.4-2.8c8.3-2.3,14,3.8,22.6,14c8,9.5,17,20.2,31.4,20.9c2.2,0.1,9,0.4,11.7-4.1
			c2.9-5-1.2-11.5-5.5-18.4c-2-3.1-6.1-9.6-5.4-11.3c0.3-0.2,0.6-0.3,0.9-0.4c5.8-1.6,16,7.6,25.1,15.7
			c11.4,10.3,22.3,19.9,31.8,17.3c2.8-0.6,5.3-2.4,6.6-5c2.2-4.4,0.1-9.7-1.9-14.8c-3.5-8.8-3.8-11.6,0.7-13.5
			c6.9-2.9,20.8,8,32,16.8c12.5,9.7,22.3,17.4,28.9,13.3c2.2-1.3,3.7-3.6,3.9-6.2c1-10.2-16.4-26.9-19.9-30.1
			c-1.5-1.3-3.8-1.1-5.1,0.3c-1.2,1.4-1.2,3.6,0.2,4.9c8.8,8.2,18.1,19.7,17.7,24.2c0,0.3-0.2,0.7-0.5,0.8
			c-2.4,1.5-14.3-7.9-20.8-12.9c-14-11-28.5-22.3-39.3-17.7c-11.5,4.9-7.1,16.1-4.5,22.7c1.3,3.3,2.9,7.4,2.2,9
			c-0.3,0.6-1.5,1.1-2.1,1.2c-5.8,1.6-16-7.6-25.1-15.7c-11.4-10.3-22.3-19.9-31.8-17.3c-2.5,0.5-4.7,2.3-5.6,4.7
			c-1.9,5,2,11.2,6.1,17.7c2,3.3,5.9,9.3,5.4,11l0,0c-1.6,0.6-3.4,0.8-5.1,0.5c-11.2-0.5-18.8-9.6-26.2-18.3
			c-8.3-9.8-16.8-19.9-30-16.3c-3.8,0.8-7.1,3.2-8.9,6.6c-2.7,5.7,0.3,12.7,2.9,18.8c1.5,3.4,3.7,8.5,2.8,10c-0.2,0.4-1.1,0.9-3,1.1
			c-8,1-17-11-24.2-20.6c-6.7-9-12.5-16.7-18.9-17.3c-2.5-0.2-5,0.6-6.8,2.4c-6.9,6.2-5.4,15.6-4.3,23.1c0.6,4.2,1.4,8.8,0.1,10.5
			c-1.1,0.9-2.5,1.3-3.8,1.2c-6.6,0.3-13.3-8.3-19.8-16.5c-8.5-10.8-17.2-22-29.1-18c-4.9,1.4-8.9,5-11,9.7
			c-4.6,10.7,1.9,25,2.2,25.6c0.9,1.8,3,2.5,4.8,1.6c1.7-0.9,2.4-2.9,1.7-4.6c-1.5-3.3-4.9-13.3-2.1-19.7c1.3-2.8,3.7-4.9,6.7-5.7
			c6.6-2.2,12.7,4.8,21.2,15.6c7.6,9.6,15.4,19.6,25.7,19.2c3.4,0.1,6.8-1.3,9.1-3.8c3.4-4.1,2.5-10,1.5-16.1c-1-6.4-2-13.1,2-16.7
			c0.7-0.6,1.1-0.6,1.3-0.6c3.3,0.3,9.1,8.2,13.8,14.5C343.1,244.1,352.4,256.5,363.7,256.6z"/>
		<path id="Tracé_1784" class="st8" d="M572.2,300.4c0.4,0,0.7-0.1,1-0.3c6.3-6.8,10.2-15.5,11.2-24.7c0.8-10.2-3.2-20.2-11-26.9
			c-0.7-0.7-1.9-0.6-2.5,0.2c-0.6,0.7-0.6,1.8,0.1,2.4c6.4,5.6,10,13.6,10,22.1c-0.5,8.9-4,17.3-9.8,24c-0.8,0.5-1,1.6-0.5,2.4
			c0,0,0,0,0,0C571,300.1,571.6,300.4,572.2,300.4z"/>
		<path id="Tracé_1785" class="st3" d="M603.3,273.6c0.5,0,0.9-0.3,1-0.7c2.9-8,3.3-16.7,1.2-25c-3.3-12.3-13.1-21.8-25.4-24.7
			c-0.6-0.1-1.2,0.2-1.4,0.8c-0.1,0.6,0.2,1.2,0.8,1.4l0,0c11.6,2.8,20.7,11.7,23.8,23.2c1.9,7.8,1.5,16-1.2,23.5
			c-0.2,0.6,0,1.2,0.6,1.4C603,273.5,603.1,273.6,603.3,273.6L603.3,273.6z"/>
		<path id="Tracé_1786" class="st3" d="M573.4,224.8c0.6,0,1.1-0.5,1.1-1.1c0-0.6-0.5-1.1-1.1-1.1l0,0l-6.7-0.2
			c-0.6,0-1.1,0.5-1.1,1.1c0,0.6,0.5,1.1,1.1,1.1c0,0,0,0,0,0L573.4,224.8L573.4,224.8z"/>
	</g>
	<g id="Groupe_268" transform="translate(96.8 183.672)">
		<circle id="Ellipse_103" class="st10" cx="191.2" cy="470.6" r="41.3"/>
		<circle id="Ellipse_104" class="st11" cx="191.2" cy="470.6" r="24.9"/>
		<path id="Tracé_1787" class="st3" d="M181.5,470.6c0,5.4,4.4,9.7,9.7,9.7c5.4,0,9.7-4.4,9.7-9.7c0-5.4-4.4-9.7-9.7-9.7
			C185.9,460.8,181.5,465.2,181.5,470.6L181.5,470.6z"/>
		<path id="Tracé_1788" class="st12" d="M202.4,457.3c-1.1,1.3-1.1,3.2-0.1,4.5c0.4,0.5,0.8,1.1,1.2,1.7c0.4,0.6,0.7,1.2,0.9,1.9
			c0.6,1.6,2.3,2.5,3.9,2.2l0,0c1.9-0.3,3.2-2.2,2.9-4.1c0-0.2-0.1-0.4-0.2-0.7c-0.4-1-0.9-2-1.4-2.9c-0.5-0.9-1.1-1.8-1.8-2.7
			c-1.2-1.5-3.5-1.7-5-0.5C202.7,456.9,202.6,457.1,202.4,457.3L202.4,457.3z"/>
		<path id="Tracé_1789" class="st12" d="M202.4,483.9L202.4,483.9c1.2,1.5,3.5,1.7,5,0.5c0.2-0.1,0.3-0.3,0.5-0.5
			c1.3-1.7,2.4-3.5,3.2-5.5c0.7-1.8-0.2-3.9-2.1-4.6c-0.2-0.1-0.4-0.1-0.7-0.2l0,0c-1.7-0.3-3.3,0.6-3.9,2.2
			c-0.3,0.6-0.6,1.3-0.9,1.9c-0.3,0.6-0.7,1.2-1.2,1.7C201.3,480.7,201.3,482.6,202.4,483.9z"/>
		<path id="Tracé_1790" class="st12" d="M185.3,486.9c-0.7,1.9,0.3,3.9,2.2,4.6c0.2,0.1,0.5,0.1,0.8,0.2c2,0.3,4.1,0.3,6.1,0
			c2-0.3,3.4-2.1,3.1-4c0-0.3-0.1-0.5-0.2-0.8l0,0c-0.6-1.6-2.2-2.6-3.9-2.3c-1.4,0.2-2.8,0.2-4.1,0
			C187.5,484.3,185.9,485.3,185.3,486.9L185.3,486.9z"/>
		<path id="Tracé_1791" class="st12" d="M174.1,473.6c-1.9,0.3-3.2,2.2-2.9,4.1c0,0.2,0.1,0.4,0.2,0.7c0.8,2,1.9,3.9,3.2,5.5
			c1.3,1.5,3.5,1.7,5,0.5c0.2-0.1,0.3-0.3,0.5-0.5l0,0c1.1-1.3,1.1-3.2,0.1-4.5c-0.4-0.5-0.8-1.1-1.2-1.7c-0.3-0.6-0.7-1.2-0.9-1.9
			C177.4,474.2,175.8,473.3,174.1,473.6L174.1,473.6z"/>
		<path id="Tracé_1792" class="st12" d="M174.1,467.6L174.1,467.6c1.7,0.3,3.3-0.6,3.9-2.2c0.3-0.6,0.6-1.3,0.9-1.9
			c0.3-0.6,0.7-1.2,1.2-1.7c1.1-1.3,1-3.2-0.1-4.5l0,0c-1.3-1.5-3.5-1.7-5-0.5c-0.2,0.1-0.3,0.3-0.5,0.5c-0.7,0.8-1.3,1.7-1.8,2.7
			c-0.5,0.9-1,1.9-1.4,2.9c-0.7,1.8,0.2,3.9,2.1,4.6C173.7,467.5,173.9,467.5,174.1,467.6z"/>
		<path id="Tracé_1793" class="st12" d="M185.3,454.3L185.3,454.3c0.6,1.6,2.2,2.6,3.9,2.3c1.4-0.2,2.8-0.2,4.1,0
			c1.7,0.2,3.3-0.7,3.9-2.3l0,0c0.7-1.9-0.3-3.9-2.1-4.6c-0.2-0.1-0.5-0.2-0.8-0.2c-2-0.3-4.1-0.3-6.1,0c-2,0.3-3.4,2.1-3.1,4
			C185.1,453.7,185.2,454,185.3,454.3z"/>
	</g>
	<g id="Groupe_269" transform="translate(187.746 179.705)">
		<circle id="Ellipse_105" class="st10" cx="450.1" cy="474.5" r="41.3"/>
		<circle id="Ellipse_106" class="st11" cx="450.1" cy="474.5" r="24.9"/>
		<circle id="Ellipse_107" class="st3" cx="450.1" cy="474.5" r="9.7"/>
		<path id="Tracé_1794" class="st12" d="M461.3,461.2c-1.1,1.3-1.1,3.2-0.1,4.5c0.4,0.5,0.8,1.1,1.2,1.7c0.4,0.6,0.7,1.2,0.9,1.9
			c0.6,1.6,2.3,2.5,3.9,2.2l0,0c1.9-0.3,3.2-2.2,2.9-4.1c0-0.2-0.1-0.4-0.2-0.7c-0.8-2-1.9-3.8-3.2-5.5c-1.3-1.5-3.5-1.7-5-0.5
			C461.6,460.9,461.4,461.1,461.3,461.2L461.3,461.2z"/>
		<path id="Tracé_1795" class="st12" d="M461.3,487.9L461.3,487.9c1.3,1.5,3.5,1.7,5,0.5c0.2-0.1,0.3-0.3,0.5-0.5
			c1.3-1.7,2.4-3.5,3.2-5.5c0.7-1.8-0.2-3.9-2.1-4.6c-0.2-0.1-0.4-0.1-0.7-0.2l0,0c-1.7-0.3-3.3,0.6-3.9,2.2
			c-0.3,0.6-0.6,1.3-0.9,1.9c-0.3,0.6-0.7,1.2-1.2,1.7C460.2,484.7,460.2,486.6,461.3,487.9z"/>
		<path id="Tracé_1796" class="st12" d="M444.2,490.9c-0.7,1.9,0.3,3.9,2.1,4.6c0.2,0.1,0.5,0.2,0.8,0.2c2,0.3,4.1,0.3,6.1,0
			c2-0.3,3.4-2.1,3.1-4c0-0.3-0.1-0.5-0.2-0.8l0,0c-0.6-1.6-2.2-2.6-3.9-2.3c-1.4,0.2-2.7,0.2-4.1,0
			C446.4,488.3,444.8,489.3,444.2,490.9L444.2,490.9z"/>
		<path id="Tracé_1797" class="st12" d="M433,477.6c-1.9,0.3-3.2,2.2-2.9,4.1c0,0.2,0.1,0.4,0.2,0.7c0.8,2,1.9,3.9,3.2,5.5
			c1.3,1.5,3.5,1.7,5,0.5c0.2-0.1,0.3-0.3,0.5-0.5l0,0c1.1-1.3,1.1-3.2,0.1-4.5c-0.4-0.5-0.8-1.1-1.2-1.7c-0.3-0.6-0.7-1.2-0.9-1.9
			C436.3,478.2,434.7,477.2,433,477.6L433,477.6z"/>
		<path id="Tracé_1798" class="st12" d="M433,471.5L433,471.5c1.7,0.3,3.3-0.6,3.9-2.2c0.3-0.6,0.6-1.3,0.9-1.9
			c0.3-0.6,0.7-1.2,1.2-1.7c1.1-1.3,1-3.2-0.1-4.5l0,0c-1.3-1.5-3.5-1.7-5-0.5c-0.2,0.1-0.3,0.3-0.5,0.5c-0.7,0.8-1.3,1.7-1.8,2.7
			c-0.5,0.9-1,1.9-1.4,2.9c-0.7,1.8,0.2,3.9,2.1,4.6C432.6,471.4,432.8,471.5,433,471.5z"/>
		<path id="Tracé_1799" class="st12" d="M444.2,458.2L444.2,458.2c0.6,1.6,2.2,2.6,3.9,2.3c0.7-0.1,1.4-0.2,2.1-0.2
			c0.7,0,1.4,0.1,2.1,0.2c1.7,0.2,3.3-0.7,3.9-2.3l0,0c0.7-1.9-0.3-3.9-2.1-4.6c-0.2-0.1-0.5-0.2-0.8-0.2c-2-0.3-4.1-0.3-6.1,0
			c-2,0.3-3.4,2.1-3.1,4C444,457.7,444.1,458,444.2,458.2z"/>
	</g>
	<path id="Tracé_1800" class="st13" d="M296.3,420.4c0,0-26.1-0.6-27.9,6.6c-1.5,9.9-2.4,20-2.7,30L239,538.9l-64.4,32.9
		c-1.8,1-2.9,2.9-2.9,5l0.9,74.5l31.2,12.6l92.4-115.6L296.3,420.4z"/>
	<path id="Rectangle_123" class="st14" d="M763.2,457.3H285.4l0,0l0,0c0-20.4,16.5-36.9,36.9-36.9h404
		C746.7,420.4,763.2,436.9,763.2,457.3L763.2,457.3L763.2,457.3z"/>
	<path id="Tracé_1801" class="st15" d="M207.6,571.8l55.3-28.1l22.5-86.4h477.8V659c0,2.7-2.2,4.9-4.9,4.9l0,0H203.7v-85.8
		C203.7,575.4,205.2,573,207.6,571.8z"/>
	<rect id="Rectangle_124" x="203.7" y="592.8" class="st16" width="559.5" height="28.9"/>
	<path id="Tracé_1802" class="st17" d="M265.6,458.3h68.9v154.4c8.8,5.1,16.4,12.1,22.2,20.4c5.9,7.6,10.6,16,14.1,25h52.9V458.3
		h5.9v205.6h1.9V458.3h331.7v-1.9H431.5v-36h-1.9v36h-164V458.3z M336.4,458.3h85.4v198h-49.7c-3.6-8.6-8.2-16.8-13.9-24.3
		c-5.8-8.2-13.3-15.2-21.8-20.4L336.4,458.3z"/>
	<g id="Groupe_276" transform="translate(123.495 144.169)">
		<path id="Rectangle_125" class="st2" d="M263.2,399.5H248c-15.9,0-28.8-12.9-28.8-28.8v-21.2c0-15.9,12.9-28.8,28.8-28.8h15.3
			c15.9,0,28.8,12.9,28.8,28.8v21.2C292.1,386.6,279.2,399.5,263.2,399.5z"/>
		<g id="Groupe_270" transform="translate(2.979 8.81)">
			<path id="Tracé_1803" class="st3" d="M242.1,360.2c0.5,0,0.9-0.4,0.9-0.9c0-0.2-0.1-0.5-0.3-0.6l-14.1-14.1
				c-0.4-0.3-0.9-0.3-1.3,0.1c-0.3,0.3-0.3,0.8,0,1.2l14.1,14.1C241.7,360.1,241.9,360.2,242.1,360.2z"/>
		</g>
		<g id="Groupe_271" transform="translate(4.889 8.537)">
			<path id="Tracé_1804" class="st3" d="M238.7,350.9c0.5,0,0.9-0.4,0.9-0.9c0-0.2-0.1-0.5-0.3-0.6l-5.5-5.5
				c-0.4-0.3-0.9-0.3-1.3,0.1c-0.3,0.3-0.3,0.8,0,1.2l5.5,5.5C238.2,350.8,238.4,350.9,238.7,350.9z"/>
		</g>
		<g id="Groupe_272" transform="translate(2.918 10.993)">
			<path id="Tracé_1805" class="st3" d="M233.5,357.6c0.5,0,0.9-0.4,0.9-0.9c0-0.2-0.1-0.5-0.3-0.6l-5.6-5.6
				c-0.3-0.3-0.9-0.3-1.3,0s-0.3,0.9,0,1.3l5.6,5.6C233,357.5,233.2,357.6,233.5,357.6z"/>
		</g>
		<g id="Groupe_273" transform="translate(12.359 8.81)">
			<path id="Tracé_1806" class="st3" d="M267.3,360.2c0.5,0,0.9-0.4,0.9-0.9c0-0.2-0.1-0.5-0.3-0.6l-14.1-14.1
				c-0.3-0.4-0.9-0.4-1.3-0.1s-0.4,0.9-0.1,1.3c0,0,0.1,0.1,0.1,0.1l14.1,14.1C266.9,360.1,267.1,360.2,267.3,360.2z"/>
		</g>
		<g id="Groupe_274" transform="translate(14.27 8.537)">
			<path id="Tracé_1807" class="st3" d="M263.9,350.9c0.5,0,0.9-0.4,0.9-0.9c0-0.2-0.1-0.5-0.3-0.6l-5.5-5.5
				c-0.4-0.3-0.9-0.3-1.3,0.1c-0.3,0.3-0.3,0.8,0,1.2l5.5,5.5C263.4,350.8,263.6,350.9,263.9,350.9z"/>
		</g>
		<g id="Groupe_275" transform="translate(12.298 10.993)">
			<path id="Tracé_1808" class="st3" d="M258.7,357.6c0.5,0,0.9-0.4,0.9-0.9c0-0.2-0.1-0.5-0.3-0.6l-5.6-5.6
				c-0.4-0.3-0.9-0.3-1.3,0.1c-0.3,0.3-0.3,0.8,0,1.2l5.6,5.6C258.2,357.5,258.4,357.6,258.7,357.6z"/>
		</g>
		<path id="Tracé_1809" class="st3" d="M219.2,328.2V392c0,4.1,3.4,7.5,7.5,7.5c0,0,0,0,0,0h57.9c4.1,0,7.5-3.4,7.5-7.5
			c0,0,0,0,0,0v-63.8c0-4.1-3.4-7.5-7.5-7.5c0,0,0,0,0,0h-57.9C222.5,320.7,219.2,324,219.2,328.2z M257.4,396v-71.7h27.2
			c2.2,0,3.9,1.8,3.9,3.9V392c0,2.2-1.8,3.9-3.9,3.9L257.4,396z M222.7,328.2c0-2.2,1.8-3.9,3.9-3.9h27.2V396h-27.2
			c-2.2,0-3.9-1.8-3.9-3.9V328.2z"/>
	</g>
	<g id="Groupe_280" transform="translate(104.693 144.169)">
		<path id="Tracé_1810" class="st2" d="M168.9,390.9l17-65c0.8-3,3.5-5.2,6.7-5.2h23.1c3.8,0,6.9,3.1,6.9,6.9l0,0v65
			c0,3.8-3.1,6.9-6.9,6.9h0h-40.1c-3.8,0-6.9-3.1-6.9-6.9C168.7,392,168.7,391.4,168.9,390.9z"/>
		<g id="Groupe_277" transform="translate(5.297 8.186)">
			<path id="Tracé_1811" class="st3" d="M205.2,365.9c0.5,0,0.9-0.4,0.9-0.9c0-0.2-0.1-0.5-0.3-0.6l-21.4-21.4
				c-0.4-0.3-0.9-0.3-1.3,0.1c-0.3,0.3-0.3,0.8,0,1.2l21.4,21.4C204.7,365.8,205,365.9,205.2,365.9z"/>
		</g>
		<g id="Groupe_278" transform="translate(5.506 11.317)">
			<path id="Tracé_1812" class="st3" d="M193.2,361.8c0.5,0,0.9-0.4,0.9-0.9c0-0.2-0.1-0.5-0.3-0.6l-8.9-8.9
				c-0.3-0.4-0.9-0.4-1.3-0.1c-0.4,0.3-0.4,0.9-0.1,1.3c0,0,0.1,0.1,0.1,0.1l8.9,8.9C192.8,361.7,193,361.8,193.2,361.8z"/>
		</g>
		<g id="Groupe_279" transform="translate(8.114 8.042)">
			<path id="Tracé_1813" class="st3" d="M200.5,353.2c0.5,0,0.9-0.4,0.9-0.9c0-0.2-0.1-0.5-0.3-0.6l-9.2-9.2
				c-0.4-0.3-0.9-0.3-1.3,0.1c-0.3,0.3-0.3,0.8,0,1.2l9.2,9.2C200,353.1,200.3,353.2,200.5,353.2z"/>
		</g>
		<path id="Tracé_1814" class="st3" d="M192.6,324.3h23.1c1.8,0,3.3,1.5,3.3,3.3v65c0,1.8-1.5,3.3-3.3,3.3h-40.1
			c-1.8,0-3.3-1.5-3.3-3.3c0-0.3,0-0.6,0.1-0.9l17-65C189.8,325.3,191.1,324.3,192.6,324.3L192.6,324.3z M192.6,320.7
			c-3.1,0-5.9,2.1-6.7,5.2l-17,65c-1,3.7,1.2,7.5,4.9,8.4c0.6,0.1,1.2,0.2,1.7,0.2h40.1c3.8,0,6.9-3.1,6.9-6.9l0,0v-65
			c0-3.8-3.1-6.9-6.9-6.9h0L192.6,320.7z"/>
	</g>
	<g id="Groupe_281" transform="translate(96.151 144.222)">
		<path id="Tracé_1815" class="st2" d="M180.9,322.2h-10.9l-23,71.8h15.5L180.9,322.2z"/>
		<path id="Tracé_1816" class="st3" d="M146,394.8c-0.3-0.3-0.3-0.8-0.2-1.2l23-71.8c0.2-0.6,0.7-0.9,1.3-0.9h10.9
			c0.7,0,1.3,0.6,1.3,1.3c0,0.1,0,0.2,0,0.3l-18.4,71.8c-0.2,0.6-0.7,1-1.3,1h-15.5C146.6,395.4,146.2,395.2,146,394.8z
			 M179.2,323.5H171l-22.1,69.2h12.6L179.2,323.5z"/>
	</g>
	<path id="Rectangle_126" class="st18" d="M233.8,617.2h-10.7c-2.3,0-4.2-1.9-4.2-4.2l0,0c0-2.3,1.9-4.2,4.2-4.2h10.7
		c2.3,0,4.2,1.9,4.2,4.2l0,0C238.1,615.3,236.1,617.2,233.8,617.2z"/>
	<path id="Tracé_1817" class="st19" d="M603,659.5c0,1.5,0.1,2.9,0.2,4.4h97.9c0.1-1.4,0.2-2.9,0.2-4.4c0-29.4-22-51.5-49.2-51.5
		S603,630.1,603,659.5z"/>
	<path id="Tracé_1818" class="st19" d="M253.9,663.9c0,0,2.8-52.8,50.2-52.8c47.3,0,61.5,52.8,61.5,52.8H253.9z"/>
	<path id="Tracé_1819" class="st3" d="M342.7,570.7c0.9,0,1.6-0.7,1.6-1.6l0,0v-16.4c0-0.9-0.7-1.6-1.6-1.6c-0.9,0-1.6,0.7-1.6,1.6
		v16.4C341,570,341.7,570.7,342.7,570.7L342.7,570.7z"/>
	<rect id="Rectangle_127" x="539.6" y="457.3" class="st2" width="182.9" height="108.6"/>
	<path id="Tracé_1820" class="st3" d="M466.2,584.5H729c1.6,0,2.9-1.3,2.9-2.9l0,0l0,0c0-1.6-1.3-2.9-2.9-2.9l0,0H466.2
		c-1.6,0-2.9,1.3-2.9,2.9l0,0l0,0C463.3,583.2,464.6,584.5,466.2,584.5L466.2,584.5z"/>
	<rect id="Rectangle_128" x="539.6" y="540.3" class="st3" width="182.9" height="25.7"/>
	<g id="Groupe_282" transform="translate(100.197 184.032)">
		<circle id="Ellipse_108" class="st20" cx="204" cy="475.1" r="41.3"/>
		<path id="Tracé_1821" class="st3" d="M214.2,438.9c12.1,5,23.9,14.1,26.1,27.8c0,0.2-0.1,0.3-0.2,0.3c-0.1,0-0.3-0.1-0.3-0.2
			c-4.4-12.3-13.8-22.2-25.9-27.2C213.5,439.4,213.8,438.7,214.2,438.9z"/>
		<path id="Tracé_1822" class="st3" d="M204.5,436.9c1.7-0.2,3.3,0,5,0.4c0.3,0.1,0.5,0.4,0.4,0.7c-0.1,0.2-0.3,0.4-0.5,0.4
			c-1.7,0-3.4-0.4-4.9-1C204.1,437.2,204.3,436.9,204.5,436.9z"/>
		<circle id="Ellipse_109" class="st11" cx="204" cy="475.1" r="24.9"/>
		<path id="Tracé_1823" class="st3" d="M194.2,475.1c0,5.4,4.4,9.7,9.7,9.7c5.4,0,9.7-4.4,9.7-9.7s-4.4-9.7-9.7-9.7
			C198.6,465.4,194.2,469.8,194.2,475.1L194.2,475.1z"/>
		<path id="Tracé_1824" class="st12" d="M215.1,461.8c-1.1,1.3-1.1,3.2-0.1,4.5c0.9,1.1,1.5,2.3,2.1,3.6c0.6,1.6,2.3,2.5,3.9,2.2
			l0,0c1.9-0.3,3.2-2.2,2.9-4.1c0-0.2-0.1-0.4-0.2-0.7c-0.4-1-0.9-2-1.4-2.9c-0.5-0.9-1.1-1.8-1.8-2.7c-1.3-1.5-3.5-1.7-5-0.5
			C215.4,461.5,215.3,461.7,215.1,461.8L215.1,461.8z"/>
		<path id="Tracé_1825" class="st12" d="M215.1,488.4L215.1,488.4c1.2,1.5,3.5,1.7,5,0.5c0.2-0.1,0.3-0.3,0.5-0.5
			c1.3-1.7,2.4-3.5,3.2-5.5c0.7-1.8-0.2-3.9-2.1-4.6c-0.2-0.1-0.4-0.1-0.7-0.2l0,0c-1.7-0.3-3.3,0.6-3.9,2.2
			c-0.3,0.6-0.6,1.3-0.9,1.9c-0.3,0.6-0.7,1.2-1.2,1.7C214,485.3,214,487.1,215.1,488.4z"/>
		<path id="Tracé_1826" class="st12" d="M198,491.5c-0.7,1.9,0.3,3.9,2.2,4.6c0.2,0.1,0.5,0.1,0.8,0.2c2,0.3,4.1,0.3,6.1,0
			c2-0.3,3.4-2.1,3.1-4c0-0.3-0.1-0.5-0.2-0.8l0,0c-0.6-1.6-2.2-2.6-3.9-2.3c-1.4,0.2-2.8,0.2-4.1,0
			C200.2,488.9,198.6,489.9,198,491.5L198,491.5z"/>
		<path id="Tracé_1827" class="st12" d="M186.8,478.2c-1.9,0.3-3.2,2.2-2.9,4.1c0,0.2,0.1,0.4,0.2,0.7c0.4,1,0.9,2,1.4,2.9
			c0.5,0.9,1.1,1.8,1.8,2.6c1.3,1.5,3.5,1.7,5,0.5c0.2-0.1,0.3-0.3,0.5-0.5l0,0c1.1-1.3,1.1-3.2,0.1-4.5c-0.4-0.5-0.8-1.1-1.2-1.7
			c-0.3-0.6-0.7-1.2-0.9-1.9C190.2,478.8,188.5,477.8,186.8,478.2L186.8,478.2z"/>
		<path id="Tracé_1828" class="st12" d="M186.8,472.1L186.8,472.1c1.7,0.3,3.3-0.6,3.9-2.2c0.3-0.6,0.6-1.3,0.9-1.9
			c0.3-0.6,0.7-1.2,1.2-1.7c1.1-1.3,1-3.2-0.1-4.5l0,0c-1.3-1.5-3.5-1.7-5-0.5c-0.2,0.1-0.3,0.3-0.5,0.5c-0.7,0.8-1.3,1.7-1.8,2.7
			c-0.5,0.9-1,1.9-1.4,2.9c-0.7,1.8,0.2,3.9,2.1,4.6C186.4,472,186.6,472.1,186.8,472.1z"/>
		<path id="Tracé_1829" class="st12" d="M198,458.8L198,458.8c0.6,1.6,2.2,2.6,3.9,2.3c1.4-0.2,2.8-0.2,4.1,0
			c1.7,0.2,3.3-0.7,3.9-2.3l0,0c0.7-1.9-0.3-3.9-2.1-4.6c-0.2-0.1-0.5-0.2-0.8-0.2c-2-0.3-4.1-0.3-6.1,0c-2,0.3-3.4,2.1-3.1,4
			C197.9,458.3,197.9,458.6,198,458.8z"/>
	</g>
	<g id="Groupe_283" transform="translate(195.097 184.527)">
		<circle id="Ellipse_110" class="st20" cx="457" cy="474.6" r="41.3"/>
		<path id="Tracé_1830" class="st3" d="M471.3,439c10.9,4.5,19,13.7,22,25.1c0.1,0.2-0.3,0.4-0.4,0.2c-4.2-10.6-11.9-19.4-22-24.7
			C470.7,439.3,471,438.9,471.3,439z"/>
		<path id="Tracé_1831" class="st3" d="M465.7,437.3c1.1,0.2,2.1,0.4,3.1,0.8c0.5,0.2,0.3,0.9-0.2,0.8c-1-0.3-2-0.7-3-1.2
			C465.4,437.5,465.5,437.2,465.7,437.3z"/>
		<circle id="Ellipse_111" class="st11" cx="457" cy="474.6" r="24.9"/>
		<path id="Tracé_1832" class="st3" d="M447.3,474.6c0,5.4,4.4,9.7,9.7,9.7s9.7-4.4,9.7-9.7s-4.4-9.7-9.7-9.7
			C451.6,464.9,447.3,469.3,447.3,474.6L447.3,474.6z"/>
		<path id="Tracé_1833" class="st12" d="M468.2,461.3c-1.1,1.3-1.1,3.2-0.1,4.5c0.4,0.5,0.8,1.1,1.2,1.7c0.4,0.6,0.7,1.2,0.9,1.9
			c0.6,1.6,2.3,2.5,3.9,2.2l0,0c1.9-0.3,3.2-2.2,2.9-4.1c0-0.2-0.1-0.4-0.2-0.7c-0.4-1-0.9-2-1.4-2.9c-0.5-0.9-1.1-1.8-1.8-2.7
			c-1.2-1.5-3.5-1.7-5-0.5C468.5,461,468.4,461.2,468.2,461.3L468.2,461.3z"/>
		<path id="Tracé_1834" class="st12" d="M468.2,487.9L468.2,487.9c1.3,1.5,3.5,1.7,5,0.5c0.2-0.1,0.3-0.3,0.5-0.5
			c0.7-0.8,1.3-1.7,1.8-2.6c0.5-0.9,1-1.9,1.4-2.9c0.7-1.8-0.2-3.9-2.1-4.6c-0.2-0.1-0.4-0.1-0.7-0.2l0,0c-1.7-0.3-3.3,0.6-3.9,2.2
			c-0.3,0.6-0.6,1.3-0.9,1.9c-0.3,0.6-0.7,1.2-1.2,1.7C467.1,484.8,467.1,486.6,468.2,487.9z"/>
		<path id="Tracé_1835" class="st12" d="M451.1,491c-0.7,1.9,0.3,3.9,2.1,4.6c0.2,0.1,0.5,0.2,0.8,0.2c2,0.3,4.1,0.3,6.1,0
			c2-0.3,3.4-2.1,3.1-4c0-0.3-0.1-0.5-0.2-0.8l0,0c-0.6-1.6-2.2-2.6-3.9-2.3c-1.4,0.2-2.7,0.2-4.1,0
			C453.3,488.4,451.7,489.4,451.1,491L451.1,491z"/>
		<path id="Tracé_1836" class="st12" d="M439.9,477.7c-1.9,0.3-3.2,2.2-2.9,4.1c0,0.2,0.1,0.4,0.2,0.7c0.8,2,1.9,3.9,3.2,5.5
			c1.3,1.5,3.5,1.7,5,0.5c0.2-0.1,0.3-0.3,0.5-0.5l0,0c1.1-1.3,1.1-3.2,0.1-4.5c-0.4-0.5-0.8-1.1-1.2-1.7c-0.3-0.6-0.7-1.2-0.9-1.9
			C443.2,478.3,441.6,477.3,439.9,477.7L439.9,477.7z"/>
		<path id="Tracé_1837" class="st12" d="M439.9,471.6L439.9,471.6c1.7,0.3,3.3-0.6,3.9-2.2c0.3-0.6,0.6-1.3,0.9-1.9
			c0.3-0.6,0.7-1.2,1.2-1.7c1.1-1.3,1-3.2-0.1-4.5l0,0c-1.3-1.5-3.5-1.7-5-0.5c-0.2,0.1-0.3,0.3-0.5,0.5c-1.3,1.7-2.4,3.5-3.2,5.5
			c-0.7,1.8,0.2,3.9,2.1,4.6C439.4,471.5,439.7,471.6,439.9,471.6z"/>
		<path id="Tracé_1838" class="st12" d="M451.1,458.3L451.1,458.3c0.6,1.6,2.2,2.6,3.9,2.3c1.4-0.2,2.7-0.2,4.1,0
			c1.7,0.2,3.3-0.7,3.9-2.3l0,0c0.7-1.9-0.3-3.9-2.1-4.6c-0.2-0.1-0.5-0.2-0.8-0.2c-2-0.3-4.1-0.3-6.1,0c-2,0.3-3.4,2.1-3.1,4
			C451,457.8,451,458.1,451.1,458.3z"/>
	</g>
	<rect id="Rectangle_129" x="643.3" y="534.9" class="st21" width="34.6" height="5.4"/>
	<path id="Tracé_1839" class="st21" d="M554.9,530.9v-9.3h18.4v9.3h4.1v9.3h-36.8v-9.3H554.9z"/>
	<path id="Tracé_1840" class="st21" d="M686.5,530.9v-9.3h18.4v9.3h4.1v9.3h-36.8v-9.3H686.5z"/>
	<g id="Groupe_284" transform="translate(172.63 142.13)">
		<path id="Tracé_1841" class="st22" d="M351.1,336.4h214.6l-8.9-21.2H360.1L351.1,336.4z"/>
		<path id="Tracé_1842" class="st23" d="M351.1,336.4h214.6v18.7c-0.1,6.6-5.5,11.8-12.1,11.7c-6.4-0.1-11.6-5.3-11.7-11.7l0,0
			c-0.1,6.6-5.5,11.8-12.1,11.7c-6.4-0.1-11.6-5.3-11.7-11.7l0,0c-0.1,6.6-5.5,11.8-12.1,11.7c-6.4-0.1-11.6-5.3-11.7-11.7l0,0
			c-0.1,6.6-5.5,11.8-12.1,11.7c-6.4-0.1-11.6-5.3-11.7-11.7l0,0c-0.1,6.6-5.5,11.8-12.1,11.7c-6.4-0.1-11.6-5.3-11.7-11.7l0,0
			c0,6.6-5.3,11.9-11.9,11.9c-6.6,0-11.9-5.3-11.9-11.9l0,0c-0.1,6.6-5.5,11.8-12.1,11.7c-6.4-0.1-11.6-5.3-11.7-11.7l0,0
			c-0.1,6.6-5.5,11.8-12.1,11.7c-6.4-0.1-11.6-5.3-11.7-11.7l0,0c-0.1,6.6-5.5,11.8-12.1,11.7c-6.4-0.1-11.6-5.3-11.7-11.7
			L351.1,336.4L351.1,336.4z"/>
		<path id="Tracé_1843" class="st11" d="M518.1,336.4v18.7c0,6.6,5.3,11.9,11.9,11.9s11.9-5.3,11.9-11.9l0,0v-18.7H518.1z"/>
		<path id="Tracé_1844" class="st11" d="M470.4,336.4v18.7c0,6.6,5.3,11.9,11.9,11.9s11.9-5.3,11.9-11.9l0,0v-18.7H470.4z"/>
		<path id="Tracé_1845" class="st11" d="M422.7,336.4v18.7c0,6.6,5.3,11.9,11.9,11.9c6.6,0,11.9-5.3,11.9-11.9l0,0v-18.7H422.7z"/>
		<path id="Tracé_1846" class="st11" d="M375,336.4v18.7c0,6.6,5.3,11.9,11.9,11.9c6.6,0,11.9-5.3,11.9-11.9c0,0,0,0,0,0v-18.7H375
			z"/>
		<path id="Tracé_1847" class="st3" d="M375,336.4h23.8l5-21.2h-21.9L375,336.4z"/>
		<path id="Tracé_1848" class="st3" d="M422.7,336.4h23.8l1-21.2h-21.9L422.7,336.4z"/>
		<path id="Tracé_1849" class="st3" d="M469.4,315.2l1,21.2h23.8l-3-21.2H469.4z"/>
		<path id="Tracé_1850" class="st3" d="M513.1,315.2l5,21.2h23.8l-7-21.2H513.1z"/>
		<path id="Tracé_1851" class="st3" d="M371.7,318.8h183.3c0.6,0,1.1-0.5,1.1-1.1c0-0.6-0.5-1.1-1.1-1.1H371.7
			c-0.6,0-1.1,0.5-1.1,1.1C370.6,318.3,371.1,318.8,371.7,318.8z"/>
		<path id="Tracé_1852" class="st3" d="M363.4,318.8h3.6c0.6,0,1.1-0.5,1.1-1.1c0-0.6-0.5-1.1-1.1-1.1l0,0h-3.6
			c-0.6,0-1.1,0.5-1.1,1.1C362.3,318.3,362.8,318.8,363.4,318.8z"/>
	</g>
	<path id="Tracé_1853" class="st3" d="M296.8,425.9h450.6c0.6,0,1.1-0.5,1.1-1.1c0-0.6-0.5-1.1-1.1-1.1l0,0H296.8
		c-0.6,0-1.1,0.5-1.1,1.1C295.7,425.4,296.2,425.9,296.8,425.9z"/>
	<path id="Tracé_1854" class="st3" d="M758.7,433.7c0.6,0,1.1-0.5,1.1-1.1c0-2-0.5-4-1.6-5.7c-1.3-2.1-3.6-3.3-6.1-3.3
		c-0.6,0-1.1,0.5-1.1,1.1c0,0.6,0.5,1.1,1.1,1.1c1.7,0,3.3,0.9,4.2,2.3c0.8,1.3,1.2,2.8,1.2,4.4C757.6,433.2,758,433.7,758.7,433.7
		C758.6,433.7,758.7,433.7,758.7,433.7L758.7,433.7z"/>
	<path id="Tracé_1855" class="st3" d="M758.8,648c0.6,0,1.1-0.5,1.1-1.1V441.1c0-0.6-0.5-1.1-1.1-1.1c-0.6,0-1.1,0.5-1.1,1.1l0,0
		v205.8C757.7,647.5,758.2,648,758.8,648C758.8,648,758.8,648,758.8,648z"/>
	<path id="Tracé_1856" class="st3" d="M758.8,656.4c0.6,0,1.1-0.5,1.1-1.1V652c0-0.6-0.5-1.1-1.1-1.1c-0.6,0-1.1,0.5-1.1,1.1l0,0
		v3.2C757.7,655.9,758.2,656.4,758.8,656.4C758.8,656.4,758.8,656.4,758.8,656.4z"/>
	<g id="Groupe_285" transform="translate(82.205 178.822)">
		<path id="Tracé_1857" class="st18" d="M117.4,415.9v24c0,1.1-0.9,2-2,2c-0.1,0-0.2,0-0.4,0l-5.2-1c-0.9-0.2-1.6-1-1.6-1.9
			l0.3-23.2c0-1.1,0.9-1.9,2-1.9c0,0,0,0,0,0l5,0.2C116.6,414,117.4,414.8,117.4,415.9z"/>
		<path id="Rectangle_130" class="st3" d="M115.3,419.4h-4.6c-0.8,0-1.4-0.6-1.4-1.4c0,0,0,0,0,0l0,0c0-0.8,0.6-1.4,1.4-1.4h4.6
			c0.8,0,1.4,0.6,1.4,1.4c0,0,0,0,0,0l0,0C116.7,418.8,116,419.4,115.3,419.4C115.3,419.4,115.3,419.4,115.3,419.4z"/>
		<path id="Tracé_1858" class="st3" d="M109.3,430.8c0,3.3,1.6,6,3.5,6s3.5-2.7,3.5-6c0-3.3-1.6-6-3.5-6
			C110.9,424.7,109.3,427.4,109.3,430.8z"/>
	</g>
	<g id="Groupe_286" transform="translate(76.916 178.404)">
		<path id="Tracé_1859" class="st18" d="M98.6,414.1v23.7c0,0.8-0.6,1.4-1.4,1.4c-0.1,0-0.1,0-0.2,0l-1.8-0.2
			c-0.7-0.1-1.2-0.7-1.2-1.4V414c0-0.8,0.6-1.4,1.4-1.4c0,0,0.1,0,0.1,0l1.8,0.1C98.1,412.8,98.6,413.4,98.6,414.1z"/>
		<path id="Rectangle_131" class="st3" d="M96.5,419.2h-0.4c-0.8,0-1.4-0.6-1.4-1.4l0,0c0-0.8,0.6-1.4,1.4-1.4h0.4
			c0.8,0,1.4,0.6,1.4,1.4l0,0C97.9,418.6,97.3,419.2,96.5,419.2z"/>
		<path id="Tracé_1860" class="st3" d="M94.5,430.6c0,3.3,0.8,6,1.7,6c0.9,0,1.7-2.7,1.7-6s-0.8-6-1.7-6
			C95.3,424.6,94.5,427.3,94.5,430.6z"/>
	</g>
	<path id="Tracé_1861" class="st3" d="M201.8,577.4c0.5,0,0.9-0.4,0.9-0.9c0-0.5-0.4-0.8-0.8-0.9l-27-1.8c-0.5,0-0.9,0.3-1,0.8
		c0,0.5,0.3,0.9,0.8,1L201.8,577.4L201.8,577.4z"/>
	<path id="Tracé_1862" class="st24" d="M187,619.6l-9.3-1.3c-0.4-0.1-0.8-0.4-0.8-0.9v-24.8c0-0.5,0.4-0.9,0.9-0.9c0,0,0,0,0,0
		l9.3,0.4c0.5,0,0.9,0.4,0.9,0.9v25.7c0,0.5-0.4,0.9-0.9,0.9h0L187,619.6z M178.7,593.5v23.1l7.5,1.1v-23.8L178.7,593.5z"/>
	<g id="Groupe_287" transform="translate(76.59 186.769)">
		<path id="Tracé_1863" class="st2" d="M95.4,435.1l29.9,5.4h20.6c2.6,0,4.7,2.1,4.7,4.7c0,0,0,0,0,0v27.2c0,2.6-2.1,4.7-4.7,4.7
			c0,0,0,0,0,0h-20.6c-1,0-30.8-11-30.8-11c-0.7-0.3-1.2-1-1.2-1.8V437c0-1,0.8-1.9,1.9-1.9C95.2,435.1,95.3,435.1,95.4,435.1z"/>
		<path id="Tracé_1864" class="st25" d="M93.2,437v27.3c0,0.8,0.5,1.5,1.2,1.8c0,0,29.9,11,30.8,11v-33c0,0-0.3-3.1,1.9-3.7h-1.9
			l-29.9-5.4c-1-0.2-2,0.5-2.2,1.5C93.2,436.8,93.2,436.9,93.2,437z"/>
		<path id="Tracé_1865" class="st3" d="M125.2,444.9h2.7c0.6,0,1.1-0.5,1.1-1.1c0-0.6-0.5-1.1-1.1-1.1l0,0h-2.7
			c-0.6,0-1.1,0.5-1.1,1.1C124.1,444.4,124.6,444.9,125.2,444.9z"/>
		<path id="Tracé_1866" class="st3" d="M133.1,444.9H146c0.6,0,1.1-0.5,1.1-1.1c0-0.6-0.5-1.1-1.1-1.1h-12.9
			c-0.6,0-1.1,0.5-1.1,1.1C132,444.4,132.5,444.9,133.1,444.9z"/>
		<path id="Tracé_1867" class="st3" d="M120.3,444.4c0.6,0.1,1.2-0.4,1.2-1c0.1-0.6-0.4-1.2-1-1.2L97,437.5
			c-0.6-0.1-1.2,0.3-1.3,0.9c-0.1,0.6,0.3,1.2,0.9,1.3l23.6,4.6C120.2,444.4,120.3,444.4,120.3,444.4z"/>
	</g>
	<g id="Groupe_288" transform="translate(208.044 159.35)">
		<path id="Tracé_1868" class="st26" d="M449.2,361.5c0.2-0.1,0.4-0.1,0.5,0c0.2,0.5,0.3,1,0.4,1.5v0.4l-0.7,0.3l-0.7-0.3V363
			C448.8,362.5,449,362,449.2,361.5z"/>
		<path id="Tracé_1869" class="st16" d="M446.3,378.1c0.1-1.2,1.3-12.4,1.4-12.8c0.1-0.4,0.5-0.3,0.6-0.5c0.1-0.2-0.2-0.4-0.2-0.4
			c0-0.3,0-0.7,0-1c0.1-0.2,0.7-0.2,0.7-0.2c0.3,0,0.7,0,0.7,0s0.4,0,0.7,0c0,0,0.6,0,0.7,0.2c0,0.3,0,0.7,0,1c0,0-0.3,0.2-0.2,0.4
			s0.5,0,0.6,0.5c0.1,0.4,1.3,11.6,1.4,12.8c0.1,1-0.1,2.1-0.5,3c-1.7,0.5-3.5,0.5-5.3,0C446.3,380.2,446.1,379.1,446.3,378.1z"/>
	</g>
	<g id="Groupe_289" transform="translate(205.358 159.35)">
		<path id="Tracé_1870" class="st26" d="M441.9,361.5c0.2-0.1,0.4-0.1,0.5,0c0.2,0.5,0.3,1,0.4,1.5v0.4l-0.7,0.3l-0.7-0.3V363
			C441.6,362.5,441.8,362,441.9,361.5z"/>
		<path id="Tracé_1871" class="st7" d="M439,378.1c0.1-1.2,1.3-12.4,1.4-12.8c0.1-0.4,0.5-0.3,0.6-0.5s-0.2-0.4-0.2-0.4
			c0-0.3,0-0.7,0-1c0.1-0.2,0.7-0.2,0.7-0.2c0.3,0,0.7,0,0.7,0s0.4,0,0.7,0c0,0,0.6,0,0.7,0.2c0,0.3,0,0.7,0,1c0,0-0.3,0.2-0.2,0.4
			c0.1,0.2,0.5,0,0.6,0.5c0.1,0.4,1.3,11.6,1.4,12.8c0.1,1-0.1,2.1-0.5,3c-1.7,0.5-3.5,0.5-5.3,0C439.1,380.2,438.9,379.1,439,378.1
			z"/>
	</g>
	<path id="Tracé_1872" class="st7" d="M601.7,537.5H625c1.9,0,3.5-1.6,3.5-3.5l0,0c0-1.9-1.6-3.5-3.5-3.5h-23.3
		c-1.9,0-3.5,1.6-3.5,3.5l0,0C598.3,535.9,599.8,537.5,601.7,537.5C601.7,537.5,601.7,537.5,601.7,537.5z"/>
	<path id="Tracé_1873" class="st27" d="M633,534.8l-4.5,6.7h-30l-3.8-6.9L633,534.8z"/>
	<path id="Tracé_1874" class="st7" d="M558.1,537.5h23.3c1.9,0,3.5-1.6,3.5-3.5c0,0,0,0,0,0l0,0c0-1.9-1.6-3.5-3.5-3.5c0,0,0,0,0,0
		h-23.3c-1.9,0-3.5,1.6-3.5,3.5c0,0,0,0,0,0l0,0C554.6,535.9,556.2,537.5,558.1,537.5C558.1,537.5,558.1,537.5,558.1,537.5z"/>
	<path id="Tracé_1875" class="st27" d="M589.3,534.8l-4.5,6.7h-30l-3.8-6.9L589.3,534.8z"/>
	<rect id="Rectangle_132" x="539.6" y="540.3" class="st16" width="182.9" height="6"/>
	<g id="Groupe_290" transform="translate(109.761 144.982)">
		<path id="Tracé_1876" class="st3" d="M183.6,403.2c0.7,0,1.3-0.6,1.3-1.3l0,0v-77.7c0-0.7-0.6-1.3-1.3-1.3
			c-0.7,0-1.3,0.6-1.3,1.3v77.7C182.3,402.6,182.9,403.2,183.6,403.2C183.6,403.2,183.6,403.2,183.6,403.2z"/>
		<path id="Rectangle_133" class="st16" d="M187.2,360.2L187.2,360.2c-1.8,0-3.3-1.5-3.3-3.3v-19.6c0-1.8,1.5-3.3,3.3-3.3l0,0
			c1.8,0,3.3,1.5,3.3,3.3V357C190.5,358.8,189,360.2,187.2,360.2z"/>
		<path id="Tracé_1877" class="st16" d="M187.2,385.7L187.2,385.7c1.7,0.1,3.2-1.1,3.3-2.8v-12.7c-0.1-1.7-1.6-2.9-3.3-2.8l0,0
			c-1.7-0.1-3.1,1.1-3.3,2.8v12.7C184,384.6,185.5,385.8,187.2,385.7z"/>
	</g>
	<g id="Groupe_293" transform="translate(220.419 179.79)">
		<path id="Tracé_1878" class="st28" d="M481.4,517.8L481.4,517.8c-1,0-1.8-0.8-1.8-1.8v-96c0-1,0.8-1.8,1.8-1.8l0,0
			c1,0,1.8,0.8,1.8,1.8v96C483.2,517,482.4,517.8,481.4,517.8z"/>
		<g id="Groupe_291" transform="translate(0 0)">
			<path id="Tracé_1879" class="st20" d="M491.3,517.8h69.8l-9.9-99.5h-69.8L491.3,517.8z"/>
			<path id="Tracé_1880" class="st29" d="M489.4,518l-9.9-99.5c-0.1-1.1,0.7-2,1.7-2.1c0.1,0,0.1,0,0.2,0h69.8c1,0,1.8,0.7,1.9,1.7
				l9.9,99.5c0.1,1.1-0.7,2-1.7,2.1c-0.1,0-0.1,0-0.2,0h-69.8C490.3,519.7,489.5,519,489.4,518z M549.4,420.2h-65.9l9.5,95.7H559
				L549.4,420.2z"/>
		</g>
	</g>
</g>
</svg>
