<?xml version="1.0" encoding="utf-8"?>
<!-- Generator: Adobe Illustrator 25.2.1, SVG Export Plug-In . SVG Version: 6.00 Build 0)  -->
<svg version="1.1" id="Calque_1" xmlns="http://www.w3.org/2000/svg" xmlns:xlink="http://www.w3.org/1999/xlink" x="0px" y="0px"
	 viewBox="0 0 800 800" style="enable-background:new 0 0 800 800;" xml:space="preserve">
<style type="text/css">
	.st0{display:none;}
	.st1{display:inline;fill:none;stroke:#010202;stroke-miterlimit:10;}
	.st2{fill:#373737;}
	.st3{fill:#757575;}
	.st4{fill:#4A494E;}
	.st5{opacity:0.5;fill:#4A494E;}
	.st6{opacity:0.3;fill:#4A494E;}
	.st7{fill:#636366;}
	.st8{fill:#EDE7E7;}
	.st9{fill:#F37901;}
	.st10{fill:#F29926;}
	.st11{opacity:0.5;fill:#F37901;}
	.st12{opacity:0.3;fill:#F37901;}
	.st13{opacity:0.5;fill:#EDE7E7;}
</style>
<g id="Calque_2_1_" class="st0">
	<line class="st1" x1="535.8" y1="151.9" x2="208.2" y2="488.3"/>
	<line class="st1" x1="619.3" y1="151.9" x2="346.1" y2="488.3"/>
	<line class="st1" x1="619.3" y1="227.8" x2="346.1" y2="564.2"/>
</g>
<g id="Calque_5">
</g>
<g id="Calque_3">
</g>
<g id="Calque_4">
</g>
<g id="Groupe_356" transform="translate(325.58 25.119)">
	<path class="st2" d="M328.2,88.1l-98.9,242.6l-5.4,13.2l-1.3,3.1c-0.6,1.5-1.3,2.9-2.1,4.1c-2.3,3.6-5.1,5.6-7.1,4.8
		c-2-0.8-2.6-4.2-1.7-8.4c0.3-1.4,0.7-2.9,1.4-4.5l1.2-2.9l5.4-13.2L319.8,81C322.7,83.4,325.4,85.7,328.2,88.1z"/>
	<g id="Groupe_350" transform="translate(0 246.97)">
		<g id="Groupe_348" transform="translate(1.96 43.172)">
			<path id="Tracé_2002" class="st3" d="M5.9,235.8c-0.3-1.1-0.6-2.1-0.9-3.2C5.2,233.7,5.5,234.8,5.9,235.8z"/>
			<path id="Tracé_2003" class="st3" d="M210.3,89l-28.1,68.8l-19.8,5.9l33-80.8L210.3,89z"/>
		</g>
		<path id="Tracé_2004" class="st3" d="M184.2,201l-33,81c-5.3,12-12.9,22.8-22.4,31.8c-14.5,13.4-39,26.5-73.7,12.3
			c-17.4-7.1-28.9-16.4-36.5-26.4c-0.3-0.4-0.6-0.8-0.9-1.3h0c-0.6-0.8-1.1-1.6-1.6-2.4c-0.9-1.4-1.8-2.8-2.5-4.1
			c-0.2-0.4-0.5-0.9-0.7-1.3c-1.1-2-2-4-2.9-6.1c-0.2-0.4-0.4-0.9-0.5-1.3c-0.3-0.9-0.7-1.8-1-2.7c-0.2-0.5-0.4-1.1-0.5-1.6
			c-0.3-1.1-0.6-2.1-0.9-3.2c-0.3-1.1-0.5-2.2-0.7-3.3c-0.1-0.5-0.2-1-0.3-1.5c-0.3-1.5-0.5-3-0.7-4.5c-1.3-12.5,0.2-25.2,4.6-37
			l33.8-82.9l13,83.2l-22.4-17.5l-9.5,23.4c-0.1,0.2-0.2,0.6-0.5,1.3c-0.1,0.3-0.2,0.6-0.3,1c-0.1,0.4-0.2,0.8-0.4,1.2
			c-0.1,0.3-0.2,0.7-0.3,1.1c0,0.1-0.1,0.2-0.1,0.4c-0.1,0.3-0.1,0.5-0.2,0.8c0,0.1-0.1,0.2-0.1,0.3c-0.1,0.4-0.2,0.8-0.3,1.3
			c-0.4,1.6-0.8,3.5-1,5.6c-0.1,0.7-0.2,1.3-0.3,2l-0.1,1.1c-0.1,0.5-0.1,1.1-0.1,1.7c0,0.5-0.1,1.1-0.1,1.7l0,1.2c0,1,0,2,0,3
			c0,1,0.1,2.1,0.2,3.1c0,0.4,0.1,0.8,0.1,1.3c0.1,0.9,0.2,1.7,0.3,2.6c0.1,0.8,0.2,1.6,0.4,2.4c0.2,1,0.4,1.9,0.6,2.9
			c0.2,0.9,0.5,1.8,0.7,2.7c0.1,0.5,0.3,0.9,0.4,1.4c0.1,0.5,0.3,0.9,0.5,1.4c0.2,0.4,0.3,0.9,0.5,1.4c0.5,1.4,1.2,2.7,1.8,4.1
			c0.2,0.5,0.5,0.9,0.7,1.4c0.3,0.5,0.5,1,0.8,1.5c0.2,0.3,0.4,0.6,0.6,1c0.1,0.2,0.2,0.3,0.3,0.5c0.2,0.3,0.4,0.7,0.7,1l0.2,0.3
			c0.2,0.4,0.5,0.7,0.8,1.1c1.3,1.9,2.8,3.6,4.4,5.3c0.3,0.3,0.6,0.6,0.9,1c0.1,0.1,0.3,0.3,0.4,0.4c0.3,0.3,0.6,0.6,0.9,0.9
			c0.4,0.4,0.8,0.7,1.2,1.1c0.3,0.3,0.6,0.5,0.9,0.8c0.3,0.3,0.6,0.6,1,0.8c0.5,0.4,0.9,0.8,1.4,1.2c0.5,0.4,1.1,0.8,1.6,1.2
			c0,0,0.1,0,0.2,0.1c5.5,3.9,11.4,7.1,17.6,9.6c21.5,8.8,40.6,5.7,56.6-9.3c7.8-7.5,14.1-16.4,18.6-26.2l28.2-69L184.2,201z"/>
		<g id="Groupe_349" transform="translate(161.339)">
			<path id="Tracé_2005" class="st3" d="M67.9,83.7c-1.2-0.7-2.5-1.4-3.8-1.9c-1.9-0.8-3.9-1.4-5.9-1.8c-14.4-3-29.5,4.4-35.4,18.5
				c-4.2,10-2.9,20.9,2.5,29.4c1.8,2.9,4.2,5.5,6.9,7.7c0,0,0,0,0.1,0.1c2.1,1.7,4.5,3.1,7.2,4.2c2.5,1,5,1.7,7.5,2.1
				c14,2.1,28.2-5.5,34-19.2C86.9,108.1,81.1,91.6,67.9,83.7z M67.9,117.4c-3.6,8.9-13.8,13.3-22.8,9.8c-1.3-0.5-2.4-1.1-3.5-1.8
				c-3-2-5.3-4.9-6.5-8.2c-1.5-4-1.7-8.5,0-12.8c2.9-7.4,10.2-11.7,17.7-11.2c1.7,0.1,3.4,0.5,5.1,1.2v0c1.7,0.7,3.2,1.6,4.5,2.7
				C68.5,101.7,70.9,109.9,67.9,117.4z"/>
		</g>
	</g>
	<g id="Groupe_351" transform="translate(155.418 305.994)">
		<path id="Tracé_2006" class="st2" d="M22.2,103.4c-1.4-0.6-2.5-1.8-3-3.3c-0.8-2.7,0.6-5.5,3.3-6.4c0,0,0.1,0,0.1,0L53,84.6
			c2.7-0.8,5.6,0.7,6.5,3.4c0.8,2.7-0.6,5.5-3.3,6.4c0,0-0.1,0-0.1,0l-30.5,9.1C24.5,103.9,23.3,103.9,22.2,103.4z"/>
	</g>
	<g id="Groupe_352" transform="translate(164.306 265.301)">
		<path id="Tracé_2007" class="st2" d="M23,119.1c-0.6-0.2-1.1-0.6-1.5-1c-2.1-1.9-2.3-5.1-0.4-7.2c0,0,0,0,0-0.1l26.1-28.5
			c1.9-2.1,5.2-2.2,7.3-0.3c2.1,1.9,2.3,5.1,0.4,7.2c0,0,0,0,0,0.1l-26.1,28.5C27.3,119.4,25,119.9,23,119.1z"/>
	</g>
	<g id="Groupe_353" transform="translate(150.168 319.594)">
		<path id="Tracé_2008" class="st2" d="M21.7,104.6c-1.4-0.6-2.5-1.8-3-3.3c-0.8-2.7,0.6-5.5,3.3-6.4c0,0,0.1,0,0.1,0l30.5-9.1
			c2.7-0.8,5.6,0.7,6.5,3.4c0.8,2.7-0.6,5.5-3.3,6.4c0,0-0.1,0-0.1,0l-30.5,9.1C24,105.2,22.8,105.1,21.7,104.6z"/>
	</g>
	<g id="Groupe_354" transform="translate(144.919 333.193)">
		<path id="Tracé_2009" class="st2" d="M21.2,105.9c-1.4-0.6-2.5-1.8-3-3.3c-0.8-2.7,0.6-5.5,3.3-6.4c0,0,0.1,0,0.1,0l30.5-9.1
			c2.7-0.8,5.6,0.7,6.5,3.4c0.8,2.7-0.6,5.5-3.3,6.4c0,0-0.1,0-0.1,0l-30.5,9.1C23.5,106.4,22.3,106.3,21.2,105.9z"/>
	</g>
	<g id="Groupe_355" transform="translate(139.668 346.796)">
		<path id="Tracé_2010" class="st2" d="M54.7,98.2l-10.2,3l-19.8,5.9l-0.5,0.2c-2.7,0.8-5.6-0.7-6.5-3.4c-0.8-2.7,0.6-5.5,3.3-6.4
			c0,0,0.1,0,0.1,0l8.6-2.6L49.5,89l2.1-0.6c2.7-0.8,5.6,0.7,6.5,3.4C58.9,94.5,57.4,97.3,54.7,98.2C54.7,98.2,54.7,98.2,54.7,98.2z
			"/>
	</g>
</g>
<g>
	<g>
		<path class="st4" d="M361.3,325.3c21.8,36.7,47.4,79.4,69.2,116.1c13.1,22.1,24.1,45.5,13.6,71c-6.2,14.9-17.2,27.2-28.6,38.6
			c-32.6,32.4-70.8,57.1-113.5,73.9c-11.5,4.5-23.4,8.5-35.8,9c-20.7,0.8-41.8-9.2-55.7-24.4c-17.5-19.2-30.8-43-45.2-64.5
			c-16.3-24.4-30.2-46.7-45.7-71.6C201.1,425.5,277.4,368.8,361.3,325.3z"/>
		<path class="st5" d="M444.1,512.4c10.5-25.5-0.5-48.9-13.6-71c-21.8-36.7-47.4-79.4-69.2-116.1c-18.7,9.7-37,20.1-55.1,30.9
			c0.4-0.2,16.8,23.9,18.7,26.8c5.7,9.2,10.6,18.9,14.7,28.9c8.2,20.3,12.7,42.2,12.3,64.1c-0.5,35.2-14,70.5-38.8,95.3
			c-26.9,26.8-70.3,42.4-107.7,30.3c-0.7-0.2-1.5-0.6-2.2-1c2.4,3,4.8,6.1,7.3,9c13.8,15.2,35,25.1,55.7,24.4
			c12.4-0.5,24.3-4.4,35.8-9c42.7-16.8,81-41.6,113.5-73.9C427,539.7,438,527.4,444.1,512.4z"/>
		<path class="st6" d="M204.4,531.3c3.1-0.3,6.3-0.8,9.4-1.3c14-2.3,27.9-5.5,40.5-11.9c10.3-5.2,19.7-12.5,26.3-22.1
			c6.6-9.5,1.8-19.2-4.9-27.7c-3.4-4.4-8.3-7.9-13.8-8.5c-4.1-0.4-8.2,0.8-12.2,2.1c-19.1,6.3-37.4,14.9-56.5,21.1
			c-9.6,3.1-19.4,5.6-29.4,6.8c-4.8,0.6-10.5,0.1-14.9,2.6c-7,4.1-1.1,9.7,2.4,14.1c8.6,10.8,19.7,20.7,33.4,23.9
			C191.3,531.9,197.9,531.9,204.4,531.3z"/>
	</g>
	<g>
		<path class="st7" d="M136.4,480.1c12.8,1.4,28.8-2.1,44.5-6.9c62.7-19.4,128.3-63,168.1-111.8c6.3-7.8,12.2-15.9,14-23.4
			c3.3-13.3-7.4-21.6-22.5-22.4s-33.7,4.5-51.7,11.4c-53.2,20.2-106.3,54.5-145.6,94.2c-12.2,12.3-22.8,25.2-26.3,37.8
			C113.3,471.5,123.3,478.7,136.4,480.1z"/>
		<g>
			<g>
				<path class="st8" d="M140.8,473.4c10,0.9,22.9-1.3,33.8-4c27.2-6.7,55.9-19.6,82.2-36c26.3-16.3,50.3-35.9,71.3-56.4
					c8.5-8.3,16.6-17,21.9-25.8c5.3-8.8,7.6-17.9,4-23.7c-3.4-5.6-11.9-7.7-21.6-7.2c-9.7,0.5-20.5,3.5-31.2,7.1
					c-61.1,20.3-123.9,61.8-164.8,108.8c-9.4,10.8-15.3,20.9-11.4,29.3C127.5,470.4,133.4,472.8,140.8,473.4z"/>
			</g>
			<path class="st8" d="M174.8,427.7c-1.1,2.6,1.4,3.8,3.2,5c2.8,1.9,4.6,4.6,4.9,8c0.2,1.5,0.1,3.1,0.6,4.4
				c0.5,1.3,1.8,2.3,3.8,2.2c3.1-0.2,7-2.9,9.9-2.9c2.8,0.1,3.3,2.7,6.3,2.5c2.1-0.2,4.7-1.9,6.5-3.6c1.8-1.7,3-3.6,4.7-5.4
				c3.9-4.1,10-7.4,15.1-8.2c2.9-0.4,5.4-0.1,8.2-0.4c2.8-0.3,6.3-1.4,8.7-3.6c3.5-3.3,2.7-7.2,6.4-10.5c3.6-3.2,8.8-3.4,13-6
				c5.3-3.2,6.8-8.4,10.5-12.7c5.3-6.1,14.3-9.6,22.2-12.3c2.1-0.7,4.2-1.4,6.2-2.6c2-1.2,3.8-3,4.1-4.5c0.3-1.6-1.1-2.4-2.1-3.3
				c-1.1-0.9-1.8-2.3-0.4-4c2-2.4,7.1-3.7,7.7-6.1c0.3-1.1-0.8-1.6-2.1-1.5c-1.3,0.1-2.8,0.8-4.3,1.4c-3.6,1.5-7.2,3-10.5,3.4
				c-3.3,0.3-6.1-0.8-5.6-3.4c0.3-1.5,1.5-3.2,2.4-4.8s1.3-3.4-0.1-4c-1.4-0.6-4.1,0.5-6.2,1.7c-2.2,1.2-4.5,2.6-6.6,2.9
				c-2.5,0.3-3.7-1-4.9-2.2c-1.2-1.1-3.2-2-5.8-0.9c-3.1,1.4-4.4,4.3-6.7,6.7c-3.6,3.7-9.3,5.6-14.1,6.7c-4.8,1.1-10.2,2.2-14.5,5.5
				c-5.4,4-7,9.7-12.3,13.8c-3.1,2.3-6.8,3.7-10.3,4.8c-3.5,1-7,1.8-10.4,3.5c-3.5,1.6-7,4.4-8,7.1c-0.5,1.3-0.3,2.5-1.2,3.8
				c-2.7,3.8-10.8,4.8-11.1,9.2c-0.1,2.1,1.3,1.7-1.4,4.5C178.6,423.6,175.7,425.4,174.8,427.7z"/>
			<g>
				<path class="st9" d="M190.5,435.8c7,1.7,17.2-0.9,26.7-4.6c22.4-8.8,43.9-23.6,62-39.6c4.9-4.3,9.8-9.1,11.5-13.7
					c2-5.4-0.9-9.1-4.8-11.7c-3.7-2.5-8.7-4.2-15.3-2.9c-6.8,1.4-13.9,5.7-20.5,9.8c-11.7,7.2-23.4,14.5-35,21.7
					c-5.7,3.5-11.5,7.1-16.6,11.3C185.6,416.5,177.8,432.7,190.5,435.8z"/>
				<path class="st10" d="M225,388.7c-9.1,11.4-17,22.9-23.5,34.4c-2.2,4-5.3,8.8-7.1,13c2,0.1,4,0,6.2-0.3
					c9-18.7,22.3-37.8,38.9-56C234.6,382.8,229.8,385.8,225,388.7z"/>
				<path class="st10" d="M241.3,405.4c-4.6,6.6-8.8,13.3-12.5,19.9c-0.1,0.2-0.3,0.6-0.6,0.9c2.3-1.1,4.5-2.2,6.7-3.4
					c11.9-19.9,28.1-39.9,47.7-58.4c-2.5-1.1-5.4-1.6-8.8-1.4c-1.1,1.2-2.1,2.5-3.1,3.7C260.5,379.6,250.2,392.4,241.3,405.4z"/>
				<path class="st11" d="M286,366.2c-3.7-2.5-8.7-4.2-15.3-2.9c-0.9,0.2-1.9,0.6-2.9,0.9c6.9,0.3,9.9,5.6,8,11.9
					c-2,6.8-8.4,14.1-15.4,20.7c-13.5,12.6-30.4,23.6-47.7,31c-6.3,2.7-12.8,5-18.5,5.4c-2.7,0.2-5.2-0.1-7.2-0.8
					c-0.8-0.3-1.6-1.1-2.5-1.6c0.7,2.4,2.6,4.2,6,5.1c7,1.7,17.2-0.9,26.7-4.6c22.4-8.8,43.9-23.6,62-39.6
					c4.9-4.3,9.8-9.1,11.5-13.7C292.8,372.6,289.8,368.8,286,366.2z"/>
				<path class="st12" d="M199.6,407.5c7.4-6.7,16.5-12.2,25.4-17.5c10.2-6.1,20.3-12.3,30.5-18.4c1.3-0.8,2.6-1.5,3.9-1.9
					c1.3-0.4,2.6-0.2,2.8,0.6c0.2,1.3-2.1,3-4,4.2c-13.5,8.2-27,16.4-40.4,24.7c-5,3.1-10.2,6.2-14.5,9.9c-4.4,3.7-8,8.2-8.7,12.1
					c-0.2,1.1-0.1,2.2-0.4,3.3c-0.4,1.7-2.9,5.3-5.5,4.8c-2-0.4-1-4-0.6-5.6C189.5,418.3,194,412.4,199.6,407.5z"/>
			</g>
			<path class="st8" d="M328.1,377c8.5-8.3,16.6-17,21.9-25.8c5.3-8.8,7.6-17.9,4-23.7c-3.4-5.6-11.9-7.7-21.6-7.2
				c-9.7,0.5-20.5,3.5-31.2,7.1c-16.7,5.6-33.6,12.7-50.1,21.2c2.5,0,5.4-0.5,8.7-1.4c2.7-0.8,5.6-1.9,7.9-1.7
				c1.6,0.1,2.9,1,4.8,0.4c2.6-0.7,4.8-3.4,7.4-4.4c1.8-0.7,3.4-0.3,4.5,0.2c1.2,0.5,2.2,1.2,3.9,1.2c4-0.1,11.9-7.4,16.4-9.3
				c3.2-1.3,7.2-1.5,7.9,0.5c0.7,2.3-2.6,4.7-4.9,7.3c-1.7,1.9-1.9,4.1-0.5,5c2.3,1.3,7.9-2.7,8.8-1.3c1.1,1.6-5.1,5.2-6.6,6.8
				c-3.5,3.8,1.5,6.2,6.5,4.3c5-2,9.3-5.9,14-9.1c4.6-3.1,11.2-5.7,13.4-3.4c2.2,2.3-2,7.4-6.4,10.8c-4.4,3.4-9.8,6.7-12.3,10.7
				c-3.3,5.2-0.3,9.7-4.7,14.8c-4.3,5-12.3,6.8-18.5,7.8c-6.2,1-14.5,3.4-18.1,8.5c-3.2,4.6-0.5,7.1-1.4,11.1
				c-0.6,2.8-2.8,6.2-6.3,8.7c-4.7,3.2-10.3,3.7-15.2,6.6c-7.1,4.2-11,12.4-18.4,15.2c-4.6,1.7-8.1,0.3-12.4,0.7
				c-4.5,0.4-9.9,3.4-13.6,6.9c-3.9,3.7-3.8,7.3-8.2,10.8c-4.7,3.7-10.7,4.3-14.9,3.5c-4.1-0.8-7.6-2.6-12.5-2.1
				c-8.3,0.7-17.8,7.2-26.9,10.9c-10.2,4.1-19,3.8-25.2,0.9c3,2.4,7.3,3.7,12.4,4.2c10,0.9,22.9-1.3,33.8-4
				c27.2-6.7,55.9-19.6,82.2-36C283.2,417.1,307.2,397.6,328.1,377z"/>
			<path class="st13" d="M130.5,456.8c0-4.3,2.9-9.7,7.8-14.4c5.6-5.4,13.8-10.2,16.4-15.8c0.9-2,0.9-3.8,2-5.8
				c3-5.7,12.1-9.5,18.9-14.1c6.7-4.5,11.6-10.4,17-15.8c14.2-14.4,33.2-26.9,52.5-34.7c4.5-1.8,10.3-3.1,10.7-0.1
				c0.2,1.9-2.3,4.6-5.1,6.2c-2.8,1.6-5.7,2.4-8.6,3.2c-6.1,1.7-12.3,3.6-18.3,6.7c-6,3.1-12,7.5-15.1,12.4
				c-1.4,2.2-2.4,4.6-4.8,6.4c-2.6,2-6.1,2.7-8.9,4.6c-4.5,3-5.6,7.5-9.1,11.2c-3.7,3.8-9.3,6-14.3,8.8c-5,2.7-10.3,7.7-8.9,10.5
				c0.4,0.8,1.4,1.3,1.9,2.1c1.6,2.9-3.8,8.2-8.9,11.4c-5.1,3.2-11.2,6.1-14.3,10.4c-2.6,3.5-2,7.1,1.3,7.9
				c3.3,0.8,8.9-1.2,12.4-4.5c2.2-2.1,3.5-4.5,5.3-6.7c1.8-2.2,4.6-4.7,7.4-5.3c2.8-0.6,4.4,1,4,3.1c-0.4,2.1-2.3,4.5-4.5,6.7
				C153.7,464.4,130.5,471.2,130.5,456.8z"/>
		</g>
	</g>
</g>
</svg>
