<?xml version="1.0" encoding="utf-8"?>
<!-- Generator: Adobe Illustrator 25.2.1, SVG Export Plug-In . SVG Version: 6.00 Build 0)  -->
<svg version="1.1" id="Calque_1" xmlns="http://www.w3.org/2000/svg" xmlns:xlink="http://www.w3.org/1999/xlink" x="0px" y="0px"
	 viewBox="0 0 960 1000" style="enable-background:new 0 0 1097.3 800;" xml:space="preserve">
<style type="text/css">
	.st0{display:none;}
	.st1{display:inline;fill:none;stroke:#010202;stroke-miterlimit:10;}
	.st2{opacity:0.58;fill:#0A2747;enable-background:new    ;}
	.st3{fill:#680019;}
	.st4{fill:#B10021;}
	.st5{fill:#7E0A29;}
	.st6{fill:#F19F35;}
	.st7{fill:#CA002D;}
	.st8{fill:#5FC1C5;}
	.st9{fill:#E20338;}
	.st10{fill:#9F0324;}
	.st11{fill:#DF8521;}
	.st12{fill:#D46A1E;}
	.st13{fill:#C86A1C;}
	.st14{fill:#CB6C1F;}
	.st15{fill:#DC811E;}
	.st16{fill:#FECF5C;}
	.st17{fill:#FFE58E;}
	.st18{fill:#FCE69F;}
	.st19{fill:#FFF6D2;}
	.st20{fill:#FB6A4F;}
	.st21{fill:#FDB984;}
	.st22{fill:#DB801D;}
	.st23{fill:#4FAD26;}
	.st24{fill:#D80720;}
	.st25{fill:#EF0F34;}
	.st26{fill:#6EBB1F;}
	.st27{fill:#575510;}
	.st28{fill:#89901A;}
	.st29{fill:#8EAA41;}
	.st30{fill:#8EA228;}
	.st31{fill:#599A12;}
	.st32{fill:#4D870A;}
	.st33{fill:#FE4110;}
</style>
<g id="Calque_2_1_" class="st0">
	<line class="st1" x1="535.8" y1="151.9" x2="208.2" y2="488.3"/>
	<line class="st1" x1="619.3" y1="151.9" x2="346.1" y2="488.3"/>
	<line class="st1" x1="619.3" y1="227.8" x2="346.1" y2="564.2"/>
</g>
<g id="Calque_5">
</g>
<g id="Calque_3">
</g>
<g id="Calque_4">
</g>
<g id="Groupe_97" transform="translate(-1252 -187.96)">
	
		<ellipse id="Ellipse_38" transform="matrix(0.9999 -1.699754e-02 1.699754e-02 0.9999 -13.3124 29.7203)" class="st2" cx="1741.7" cy="798" rx="194.6" ry="57.9"/>
	<g id="AdobeStock_36826394" transform="translate(1252 187.96)">
		<path id="Tracé_406" class="st3" d="M313.3,596c-5.6,11.5-1.5,25.5,9.5,32.1c19.4,12.8,94.5,24.3,167.4,2.1
			c10-10.5,11.2-23.7,7.9-38.3C421.9,595,313.3,596,313.3,596z"/>
		<path id="Tracé_407" class="st4" d="M161.7,365.1c-3.2,13.8-4.8,27.9-4.8,42c0,118.5,112.5,214.6,251.4,214.6
			s251.4-96.1,251.4-214.6c0-12.6-1.3-25.2-3.9-37.6c-83.5,0.4-166.9-0.9-250.4-2.2C324.2,366.1,243.1,364.8,161.7,365.1
			L161.7,365.1z"/>
		<path id="Tracé_408" class="st5" d="M655.2,372.6c0,31.2-111,56.5-248,56.5s-248-25.3-248-56.5s111-56.5,248-56.5
			S655.3,341.4,655.2,372.6L655.2,372.6z"/>
		<path id="Tracé_409" class="st3" d="M604.5,375.2c-23.9-25.9-35-29.1-73.8-30.5c11.7,5.9,18.7,2.2,30.5,11
			c-29.4,0-61.9-6.3-91.2-3.3c-15.7-1.8,5.7-16.7,5.5-34.1c-21.6-1.4-44.4-2.2-68-2.2c-9.9,0-19.6,0.1-29.1,0.4
			c4.8,38.6-93.7,40.6-142.3,47c8.8,2.9,28.5,0,37.6,5.2c-32-2.7-76.4,0.9-99.1,23.3c34.8,21.6,125.9,37.1,233,37.1
			c136.9,0,248-25.3,248-56.5c-0.1-2.6-0.8-5.2-2.2-7.4c-2.7,7.5-8.3,13.7-15.5,17.1C628.8,388.2,610.4,384,604.5,375.2L604.5,375.2
			z"/>
		<path id="Tracé_410" class="st6" d="M561.3,365.4c-22.6-6.3-45.3-2.9-68.4,0.5c-30.8,4.6-62.4,9.1-96-9.4
			c-23.5-11.7-49.9,8.8-76.3,20.5c-15.5,5.2-31.6,4.1-47.7,3c-20.5-1.4-41.2-2.8-60.9,8.7c-7,3.5-13.7,7.4-20.2,11.8
			c42.7,17,123.1,28.5,215.3,28.5c89.4,0,167.7-10.8,211.3-26.9C602.9,385.3,583.2,372.6,561.3,365.4L561.3,365.4z"/>
		<path id="Tracé_411" class="st7" d="M377.9,228.1c0,0-8.8,4.4,1.5,8.8L937,219.3c0,0,10.3-24.9-4.4-29.3L377.9,228.1z"/>
		<path id="Tracé_412" class="st8" d="M157.3,416.5c0,0,275.6,89.3,502.4-7.6c0.1,6.2-0.3,12.4-1,18.6
			c-37,16.6-226.8,91.9-499.4,7.8C159.4,435.4,156.4,420,157.3,416.5L157.3,416.5z"/>
		<path id="Tracé_413" class="st6" d="M400.5,218.7c0,0-14.7,10.8-6.8,20.5c7.8,9.8,11.8,21.5,0,31.3c-11.8,9.8-13.7,23.5-2,32.3
			c11.7,8.8,15.6,15.7,5.9,24.5s-21.5,16.6-8.8,30.3c12.7,13.7,8.8,28.4,3.9,33.3c0,0,0,4.9,9.8,4.9c7.8-6.8,10.8-25.4,4.9-30.3
			c-5.9-4.9-17.6-15.6-8.8-22.5s15.7-16.6,12.7-29.3c-2.9-12.7-22.5-15.7-14.7-30.3c7.8-14.7,17.6-14.7,16.6-29.3
			c-1-14.7-10.8-21.5-2.9-31.3C410.3,222.6,411.3,216.7,400.5,218.7z"/>
		<path id="Tracé_414" class="st6" d="M423,218.7c0,0-14.7,10.8-6.9,20.5c7.8,9.8,11.8,21.5,0,31.3c-11.8,9.8-13.7,23.5-2,32.3
			c11.7,8.8,15.7,15.6,5.9,24.4c-9.8,8.8-21.5,16.6-8.8,30.3s8.8,28.4,3.9,33.3c0,0,0,4.9,9.8,4.9c7.8-6.8,10.8-25.4,4.9-30.3
			c-5.9-4.9-17.6-15.7-8.8-22.5c8.8-6.8,15.6-16.6,12.7-29.3c-2.9-12.7-22.5-15.7-14.7-30.3c7.8-14.7,17.6-14.7,16.6-29.3
			c-1-14.7-10.8-21.5-2.9-31.3C432.8,222.6,433.8,216.7,423,218.7L423,218.7z"/>
		<path id="Tracé_415" class="st6" d="M438.7,218.7c0,0-14.7,10.8-6.9,20.5c7.8,9.8,11.8,21.5,0,31.3c-11.8,9.8-13.7,23.5-2,32.3
			s15.7,15.6,5.9,24.4c-9.8,8.8-21.5,16.6-8.8,30.3c12.7,13.7,8.8,28.4,3.9,33.3c0,0,0,4.9,9.8,4.9c7.8-6.8,10.7-25.4,4.9-30.3
			c-5.9-4.9-17.6-15.7-8.8-22.5c8.8-6.8,15.7-16.6,12.7-29.3c-3-12.7-22.5-15.7-14.7-30.3c7.8-14.7,17.6-14.7,16.6-29.3
			c-1-14.7-10.7-21.5-2.9-31.3C448.5,222.6,449.4,216.7,438.7,218.7L438.7,218.7z"/>
		<path id="Tracé_416" class="st6" d="M458.3,218.7c0,0-14.7,10.8-6.9,20.5c7.8,9.8,11.8,21.5,0,31.3s-13.7,23.5-2,32.3
			s15.7,15.6,5.9,24.4c-9.8,8.8-21.5,16.6-8.8,30.3c12.7,13.7,8.8,28.4,3.9,33.3c0,0,0,4.9,9.8,4.9c7.8-6.8,10.8-25.4,4.9-30.3
			c-5.9-4.9-17.6-15.7-8.8-22.5c8.8-6.8,15.6-16.6,12.7-29.3c-2.9-12.7-22.5-15.7-14.7-30.3c7.8-14.7,17.6-14.7,16.6-29.3
			c-1-14.7-10.8-21.5-2.9-31.3C468,222.6,469,216.7,458.3,218.7L458.3,218.7z"/>
		<path id="Tracé_417" class="st9" d="M375.4,218c0,0-8.4,5.1,2.2,8.6l553.9-65.8c0,0,8.1-25.7-6.9-28.9L375.4,218z"/>
		<path id="Tracé_418" class="st10" d="M335.3,322.8c-4.4,0-9.8,0.2-15.8,0.6c0,0-128.3,8.4-154.2,43.4c-0.6,3.9,0.8,5.5,3.6,5.5
			c9.2,0,33.7-16.9,54.1-22.3c26.6-7.1,86.8-20.1,112.1-22.6C355.4,325.3,351.7,322.8,335.3,322.8L335.3,322.8z"/>
		<path id="Tracé_419" class="st10" d="M586.7,336.3c-7.5,0,6.8,8,26.9,16.9c16.9,7.5,27.6,12.9,32.6,12.9c1.9,0,2.9-0.8,3.1-2.6
			c-4.5-11.6-57-26.6-57-26.6C590.4,336.6,588.6,336.4,586.7,336.3L586.7,336.3z"/>
		<path id="Tracé_420" class="st11" d="M283.4,381c-0.7,0-1.3,0-2,0.1c0,0-5.7,11.5-1.4,17.5c4.3,6-2.6,8-8.9,12.6
			c-2.8,2-3,2.9-1.8,2.9c3.5-0.7,6.9-2.1,9.9-4.1c3-1.7,7.8-4.3,13.2-7c-1.7,0.6-3.3,1.1-5,1.6C282.3,397.7,280.9,389,283.4,381z"/>
		<path id="Tracé_421" class="st11" d="M391.3,398.9c-0.3,1.4-0.6,2.9-1.1,4.3l0,0c2.7,2.6,6.2,4.2,10,4.5c1.1,0,1.9-0.3,2-0.7
			c0-0.1,0-0.1,0-0.1C402.2,405.5,396.1,403.3,391.3,398.9L391.3,398.9z M324.7,398.3c-4.9,1.1-9.6,3.1-13.9,5.7
			c-1.7,1.6-1.1,2.2,0.7,2.2c2.5-0.2,5-0.7,7.3-1.6c2.5-1.2,5.1-2.3,7.8-3.1c-0.4,0-0.9-0.1-1.3-0.1
			C325.1,400.3,324.9,399.3,324.7,398.3L324.7,398.3z"/>
		<path id="Tracé_422" class="st12" d="M544.1,419.7c-12.6,1.9-26,3.5-40,4.9C518,423.4,531.8,421.8,544.1,419.7z"/>
		<path id="Tracé_423" class="st13" d="M544.2,419.7c-12.8,1.9-26.4,3.6-40.7,5l0.7-0.1C518.1,423.3,531.5,421.6,544.2,419.7
			L544.2,419.7L544.2,419.7L544.2,419.7z"/>
		<path id="Tracé_424" class="st12" d="M403.7,429.1l0.1,0.1c0.9,0,2,0,3.3-0.1L403.7,429.1L403.7,429.1z"/>
		<path id="Tracé_425" class="st14" d="M405.3,429.1L405.3,429.1z"/>
		<path id="Tracé_426" class="st13" d="M404.2,429.1L404.2,429.1z"/>
		<path id="Tracé_427" class="st11" d="M432.8,388.3c-1,0.3-2.1,0.5-3.1,0.8c-0.4,0.8-0.8,1.6-1.2,2.3c0.9-0.3,1.8-0.6,2.7-0.9
			C431.8,389.8,432.3,389.1,432.8,388.3L432.8,388.3z M453.8,385.2c-2.2,0.1-4.6,0.2-7,0.5c-0.3,0.8-0.6,1.5-0.9,2.3
			c1.1-0.1,2.2-0.1,3.4-0.1c0.7,0,1.4,0,2.1,0l1.2,0C453,387.1,453.5,386.1,453.8,385.2L453.8,385.2z M507,375.2
			c-2.7,0.3-5.3,1.4-7.2,3.3c-4.2,3.2-18.2,7.2-32.1,7.2c-0.5,0-0.9,0-1.4,0c-0.3,0.8-0.6,1.6-0.9,2.4c21.6-0.3,34.6-3.4,42.7-9.9
			c9.8,8.8,28.4,25.4,28.4,40.1c-20.3,2.4-84.3,7.6-116.7,7.6c-5.1,0.1-10.2-0.1-15.3-0.7l-1-17.6c4.7-5,10.3-9.2,16.4-12.3
			c-1-0.3-1.9-0.7-2.7-1.2c-6.2,2.6-11.5,7.1-15,12.9l0,0c0,0,0,0.1,0,0.1c-0.2,1.5-2.1,20.1,1.6,22.2h3.5
			c14.5-0.2,56.1-0.9,96.2-4.4c14.3-1.4,27.9-3,40.7-5c-1.8-7-5.4-13.3-10.6-18.3c-6.5-6.1-12.5-12.6-18-19.5c-0.5-0.7-0.7-1-0.6-1
			c0.3,0,6,7.1,8.3,7.1c2.9,0-2-3.7-8.6-9.2C512.6,376.7,509.9,375.5,507,375.2L507,375.2z"/>
		<path id="Tracé_428" class="st11" d="M429.7,389.1c-4.3,1.2-8.5,2.8-12.6,4.8c0.8,0.6,1.8,1,2.7,1.2c2.8-1.5,5.6-2.7,8.6-3.7
			C428.9,390.7,429.4,389.9,429.7,389.1L429.7,389.1z"/>
		<path id="Tracé_429" class="st11" d="M446.8,385.7c-4.7,0.6-9.4,1.4-14,2.6c-0.5,0.8-1,1.6-1.6,2.3c4.8-1.4,9.7-2.3,14.7-2.6
			C446.2,387.2,446.5,386.5,446.8,385.7L446.8,385.7z"/>
		<path id="Tracé_430" class="st11" d="M455.8,385.1c-0.6,0-1.3,0-2,0c-0.3,1-0.8,1.9-1.2,2.8c3.3,0.1,6.5,0.1,9.5,0.1
			c1.2,0,2.3,0,3.4,0c0.3-0.8,0.6-1.6,0.9-2.4c-1.8,0-3.7-0.1-5.5-0.3C459.2,385.2,457.5,385.1,455.8,385.1L455.8,385.1z"/>
		<path id="Tracé_431" class="st15" d="M402.2,406.9C402.2,406.9,402.2,406.9,402.2,406.9C402.2,406.9,402.2,406.9,402.2,406.9z"/>
		<path id="Tracé_432" class="st16" d="M309.1,362c-14.8,0-26.9,12-26.9,26.8c0,5.6,1.8,11.1,5.1,15.7
			c16.6-4.6,31.2-16.6,48.7-16.8C335.3,373.4,323.5,362,309.1,362L309.1,362z"/>
		<path id="Tracé_433" class="st17" d="M306.7,363.1c-2.9,0.1-5.8,0.8-8.4,2.2c0,0-22.9,12.9-11.2,35.2c0.2,0.1,0.5,0.2,0.8,0.1
			c4,0,14.3-8.3,21-13c7.1-5.2,10.9-16,7.7-20C314.1,364.7,310.5,363,306.7,363.1L306.7,363.1z"/>
		<path id="Tracé_434" class="st18" d="M370,360.9c-17.5-6.6-37,2.2-43.6,19.7c-2.5,6.7-2.9,13.9-1,20.8c8.5,0.5,17,0.3,25.4-0.6
			c13.4-1.1,26.8-2.2,39.4,2.4C396,385.9,387,367.3,370,360.9z"/>
		<path id="Tracé_435" class="st19" d="M346.3,361.9c-12.4,4.7-20.8,16.5-21.2,29.8c0.6,7.7,11.7,5.1,20.6-6
			c5.8-7.6,12.7-14.3,20.3-20C370.1,362.8,359.2,356.8,346.3,361.9L346.3,361.9z"/>
		<path id="Tracé_436" class="st20" d="M403.5,407.5c12.5-13,29.9-20.1,47.9-19.6c30.3,1,47-2,56.7-9.8
			c9.8,8.8,28.4,25.4,28.4,40.1c-24.5,2.9-112.5,9.8-132.1,6.8L403.5,407.5L403.5,407.5z"/>
		<path id="Tracé_437" class="st21" d="M508.9,391.6c-7.3,6.9-24.2,9.3-39.2,9.3c-6.1,0-12.3-0.4-18.3-1.3
			c-1.8-0.3-3.7-0.4-5.6-0.4c-16.4,0-34.5,10.2-34.5,10.2c12.6-2.8,25.3-4.8,38.1-5.9c7.7,1.3,15.5,1.9,23.3,2
			C493.8,405.6,503.2,399.2,508.9,391.6L508.9,391.6z M512,386.9c-0.9,1.6-2,3.2-3.1,4.7C510.3,390.4,511.4,388.7,512,386.9z"/>
		<path id="Tracé_438" class="st21" d="M513.9,402.8c-7.2,6.7-23.5,9-38.2,9c-6.5,0-13-0.5-19.4-1.5c-2-0.3-3.9-0.5-5.9-0.5
			c-16.3,0-34.3,9.9-34.3,9.9c12.6-2.7,25.4-4.6,38.2-5.5c8,1.4,16,2.1,24.1,2.2C498.8,416.5,508.2,410.2,513.9,402.8z M517,398.1
			c-0.9,1.6-2,3.2-3.1,4.7C515.3,401.5,516.4,399.9,517,398.1z"/>
		<path id="Tracé_439" class="st22" d="M254.2,379.4l4.9,0.6c-3.4,2.8-6.4,6.1-8.9,9.7c-2.6,5.4-7.4,9.4-13.2,10.9
			c-6,2-11.6,5.1-16.6,9.1l-10.9-2.3c3.7-4.3,8.3-7.8,13.5-10c8.3-3.4,12.3-4,16.3-9.4c2.6-3.4,5.8-6.2,9.4-8.3L254.2,379.4z"/>
		<path id="Tracé_440" class="st22" d="M268.8,379.9c-2.9,2.5-5.3,5.5-7.2,8.9c-1.1,3.4-6,10.9-8.9,11.5c-4.3,0.9-8.4,2.5-12.3,4.6
			c-2.3,1.7-9.7,5.2-10.6,6.9l12.3,2.9c0,0,9.1-5.2,15.7-8.3c6.6-3.1,9.7-5.4,11.7-11.2c2-4.9,4.4-9.7,7.2-14.3
			C274.2,380.1,271.5,379.8,268.8,379.9z"/>
		<path id="Tracé_441" class="st22" d="M306.3,397.4c-4.8,2.2-9.4,4.9-13.7,8c-2.9,2.9-8.6,9.1-15.5,9.7c-3.9,0.3-7.8,1.4-11.2,3.4
			l19.8,3.1c3.4-2.1,6.5-4.6,9.1-7.4c5.3-6.4,11.6-11.9,18.6-16.3c4.1-1.8,7.6-4.7,10.3-8.3C323.7,389.7,307.4,396.8,306.3,397.4z"
			/>
		<path id="Tracé_442" class="st22" d="M332,401.4c0,0-7.4,1.7-8.3,5.2c-1.2,3.9-4.6,6.8-8.6,7.4c-4.9,0.9-8.7,4.8-9.4,9.7
			c4,0.7,8,1.1,12,1.1c0,0,3.7-7.7,8.9-8.9c5.2-1.1,11.7-13.7,11.7-13.7L332,401.4z"/>
		<path id="Tracé_443" class="st22" d="M350.4,401.1c-2.9,2.5-5,5.8-6,9.4c-0.9,5.2-2.6,4.9-6.3,6.6c-3.2,2.3-5.9,5.4-7.7,8.9
			l12.3,1.1c2-2.6,4.4-5,7.2-6.9c3.1-1.7,3.4-7.2,3.4-10c0.7-3.3,2-6.5,3.7-9.4L350.4,401.1z"/>
		<path id="Tracé_444" class="st22" d="M371.5,354.7c-0.3,1.8,0.2,3.7,1.4,5.2c1,1,1.8,2.1,2.3,3.4l3.1,1.1c-0.1-2.2-0.8-4.4-2-6.3
			c-1-1.3-1.5-3-1.1-4.6C375.3,353.6,372.1,353.6,371.5,354.7z"/>
		<path id="Tracé_445" class="st22" d="M375,400.3c-0.7,3.6-3.8,6.1-7.4,6c-6.9,0.6-8.6,7.4-5.7,10c2.4,3.6,4.1,7.7,4.9,12h8.6
			c-0.2-3.4-1.4-6.7-3.4-9.4c-3.6-5.5,1.1-3.7,6-9.7c2.2-2.2,3.9-4.9,5.2-7.7L375,400.3z"/>
		<path id="Tracé_446" class="st22" d="M391.3,404.5c0,0-7.4,6.6-6,10.9c1.4,4.3,3.7,5.4,6.3,8.3c1.5,1.5,2.5,3.4,3.1,5.4l6.6-0.6
			c-0.5-3.1-1.7-6-3.4-8.6c-2.6-3.4-0.9-12.6-0.9-12.6L391.3,404.5z"/>
		<path id="Tracé_447" class="st22" d="M404.5,360.2c0,0,6.3,10.3,1.4,14.6c-4.9,4.3-9.4,11.4-8.6,15.7c0.3,4.1,0,8.3-0.9,12.3
			l5.7,4c2.3-3.1,3.3-7,2.9-10.9c-0.3-7.4,3.4-11.7,6.9-17.5c2.2-4.2,3.3-9,3.1-13.7L404.5,360.2z"/>
		<path id="Tracé_448" class="st22" d="M432.2,368.8c0,0-1.7,9.1-6.9,12c-5.1,2.9-3.4,12.3-3.4,12.3l6.3-1.7
			c2-3.3,3.7-6.7,5.2-10.3c1.2-3.8,1.6-7.8,1.1-11.8L432.2,368.8z"/>
		<path id="Tracé_449" class="st22" d="M469.7,369.1c0,0,0,5.4,4,7.2c3.4,1.6,6.4,4.1,8.6,7.2c0.7,1,1.4,2.1,2,3.2l8.3-1.4
			c-2.2-2-4.2-4.2-6-6.6c-2.2-2.6-4.7-5-7.4-7.2c-1.1-1-1.9-2.1-2.6-3.4L469.7,369.1z"/>
		<path id="Tracé_450" class="st22" d="M490.6,366.2c0,0,0,5.4,3.7,5.4c3.7,0,4.6,5.4,4,7.7c-0.4,1.2-0.4,2.5,0,3.7
			c0,0,6.9-1.4,7.4-3.7c-0.2-3.6-1-7.2-2.3-10.6c-1-1.5-2-2.9-3.1-4.3L490.6,366.2z"/>
		<path id="Tracé_451" class="st22" d="M515.5,362.5c0,0,0,12.3,6.3,13.5c5.2,0.9,9.4,4.7,10.9,9.7c0,5.7,2.9,11,7.7,14
			c6.9,4.6,15.5,10,16.3,17.5c6.9-0.9,13.7-2.3,13.7-2.3s-5.7-6-8.6-8.6c-2.9-2.6-8.3-6.9-10-8.6c-3.3-2.1-5.8-5.2-7.2-8.9
			c-1.7-5.4-3.7-11.7-6.6-13.2s-7.2-5.4-7.4-7.4c-0.5-2.1-1.2-4.2-2-6.3L515.5,362.5z"/>
		<path id="Tracé_452" class="st22" d="M539.3,362.5c0,0-3.1,6.6,1.4,7.2c4.6,0.6,4.6,6.3,10,14.3c5.4,8,5.4,8.6,9.7,9.4
			c4.3,0.9,3.4,3.7,9.7,6.6c4.9,1.9,9.7,4.1,14.3,6.6c4,2.6,4,4,4,4c4.4-0.5,8.7-1.4,12.9-2.9c-2-4.3-12-8.6-16.9-10.3
			s-6.3-4-11.4-8.6c-5.1-4.6-9.1-5.4-13.2-9.4c-4-3.6-7.6-7.6-10.6-12c-0.6-2-1.4-4.6-1.4-4.6C545,362.5,542.1,362.4,539.3,362.5z"
			/>
		<path id="Tracé_453" class="st22" d="M566.5,367.3c0,0-2.9,6.9,1.1,8.6c4,1.7,8.9,10,13.2,12.6c3.3,1.9,6.9,3.1,10.6,3.7
			c5,1.3,9.4,4.2,12.6,8.3c1.4,1.8,2.7,3.7,3.7,5.7l6-2.3c-1-3.8-3.2-7.1-6.3-9.5c-4.7-3.9-9.8-7.2-15.2-10
			c-5.6-3.3-10.7-7.6-14.9-12.6C573.9,370,570.3,368.5,566.5,367.3z"/>
		<path id="Tracé_454" class="st22" d="M448.5,370.2c0,0,6.9,6.6,2.9,8.9c-2.4,1.4-4.3,3.5-5.4,6l0.3,2.9h8c0,0,5.4-2.3,5.4-6.3
			c0.3-2.9-0.1-5.9-1.1-8.6c-1.2-1.6-2.8-3-4.6-4L448.5,370.2z"/>
		<path id="Tracé_455" class="st23" d="M551.2,371.3l-7.8,9.8h10.8L551.2,371.3z"/>
		<path id="Tracé_456" class="st23" d="M572.7,384l-23.5,10.8l6.8,7.8l15.7-6.8L572.7,384z"/>
		<path id="Tracé_457" class="st23" d="M381,413.4h-12.7l2.9,6.8h9.8V413.4z"/>
		<path id="Tracé_458" class="st23" d="M255.8,387.9l3.9,14.7l4.9-1l-3.9-13.7H255.8z"/>
		<path id="Tracé_459" class="st24" d="M165.6,445.4c78.9,24.2,160.3,39.6,242.6,46c129.1,8.8,107.1,83.5,51.8,110.5
			c-52,25.4-172.6,3.5-228-46C186.1,514.9,166.6,456.1,165.6,445.4z"/>
		<path id="Tracé_460" class="st25" d="M217.4,478.5c0,0-23.4,1.1-16.9,24s51.8,76.8,124.8,72.5c73-4.4,57.2-63.2,6.5-77.4
			S230.5,476.9,217.4,478.5z"/>
		<path id="Tracé_461" class="st26" d="M330.4,372.5c-4.2-5.3-10.2-9-16.9-10.3c-1.2-2.4,2.9-2.7,4.9-2.2c2,0.5,0.3,0,2.2-2.2
			c2-2.2,3.7-3.2,5.6-2s2.9,3.7,6.4,1s2.9-4.4,7.1-4.7s7.3-1.5,10.3,0c1.7,0.8,3.6,1.2,5.4,0.9c0.9,0,2,0,3.4,0
			c4.4,0.2,12.2,3.9,11.7,7.8C356.1,355.4,339.7,360.1,330.4,372.5L330.4,372.5z"/>
		<path id="Tracé_462" class="st26" d="M380.8,367.1c-0.7-1.7-0.5-3.6,0.5-5.1c1.4-2.4,4.2-3.5,6.8-2.7c3.9,0.7,6.9,0.2,5.6,2.9
			c-1.2,2.7-1,2,2.4,5.4c3.4,3.4,5.4,5.4,3.2,9.5c-2.2,4.2-1,3.3-2.1,13.4c-1.1,10.1-5.7,8.4-5.7,8.4
			C394,387.2,389.9,375,380.8,367.1z"/>
		<path id="Tracé_463" class="st27" d="M349.3,359.7c-7.5,2-14.1,6.5-18.8,12.7l0,0c0.6-0.7,1.4-1.5,2.4-2.6c3.6-3.9,8-7,13-8.9
			C347,360.5,348.2,360.1,349.3,359.7L349.3,359.7z"/>
		<path id="Tracé_464" class="st28" d="M330.6,372.4L330.6,372.4l-0.1,0.1L330.6,372.4L330.6,372.4z"/>
		<path id="Tracé_465" class="st29" d="M346,360.9c-5,1.9-9.4,4.9-13,8.9C336.7,366.1,341.1,363.1,346,360.9z"/>
		<path id="Tracé_466" class="st27" d="M318.5,363.5l-0.2,0.1c2,0.7,3.9,1.7,5.6,2.9l0.4,0.3C322.6,365.5,320.6,364.4,318.5,363.5
			L318.5,363.5z"/>
		<path id="Tracé_467" class="st30" d="M318.3,363.6L318.3,363.6c1.9,0.8,3.8,1.8,5.6,2.9C322.2,365.3,320.3,364.4,318.3,363.6z"/>
		<path id="Tracé_468" class="st31" d="M347.8,357.3c-2.1-0.3-4.2,0.7-5.4,2.5c-2,2.2-1.7,2.9-5.6,2.9c-2.7,0-2.7-1.1-3.8-1.1
			c-0.8,0.1-1.6,0.4-2.3,0.8c-1.2,0.7-2.5,1.3-3.8,1.5c-0.8,0-1.4-0.4-2.5-1.2c-0.6-0.4-1.2-0.6-1.9-0.6c-1.4,0.1-2.7,0.6-3.9,1.3
			c2.1,0.8,4.1,1.9,5.9,3.3c2.5,1.4,4.5,3.4,6.1,5.7l0,0l0.1-0.1c4.7-6.2,11.3-10.6,18.8-12.7c2.5-0.8,5.2-1.2,7.8-1.2h0.4
			c-0.1-0.7-1.1-1-2.1-1c-0.9,0-1.7,0.1-2.5,0.5c-0.1,0.1-0.3,0.1-0.4,0.1C351,357.8,349.4,357.5,347.8,357.3L347.8,357.3z"/>
		<path id="Tracé_469" class="st32" d="M380.8,367.1c-0.5-1.4,0.3-3,1.7-3.5c0.4-0.1,0.8-0.2,1.2-0.1c3.9,0,1.5,2.2,3.7,2.9
			c2.2,0.8,5.1,2.7,3.9,3.9c-1.2,1.2-4.2,2-1,5.4c3.2,3.4,3.7,5.4,2.7,7.6c-0.5,3.6-0.5,7.2,0,10.8c-0.2,1.7-0.7,3.3-1.5,4.9
			C391.6,398.9,397,382.8,380.8,367.1z"/>
		<path id="Tracé_470" class="st33" d="M229.5,394.1l-12.1-3l3.4-13.5l12.1,3L229.5,394.1z"/>
		
			<rect id="Rectangle_105" x="305" y="399.6" transform="matrix(0.944 -0.33 0.33 0.944 -116.7243 125.4724)" class="st33" width="12.5" height="13.9"/>
		
			<rect id="Rectangle_106" x="413.1" y="373.8" transform="matrix(0.9996 -2.929989e-02 2.929989e-02 0.9996 -10.9594 12.4327)" class="st33" width="11.4" height="12.7"/>
	</g>
</g>
</svg>
