<svg xmlns="http://www.w3.org/2000/svg" xmlns:xlink="http://www.w3.org/1999/xlink" width="83.242" height="83.229" viewBox="0 0 83.242 83.229"><path fill="#ffb400" d="M.293 10.986c-.39.39-.39 1.023 0 1.414l26.49 26.49c.194.194.45.292.706.292s.51-.098.706-.293l4.646-4.647 1.37 1.37L17.23 52.597c-3.632 3.63-3.632 9.54 0 13.17 1.814 1.814 4.2 2.723 6.584 2.723 2.385 0 4.77-.908 6.585-2.723l16.98-16.983 1.493 1.492-4.646 4.646c-.188.188-.292.44-.292.706 0 .266.104.52.292.707l26.602 26.6c.194.196.45.295.706.295s.512-.1.707-.294L82.95 72.232c.39-.392.39-1.024 0-1.414L56.347 44.215c-.375-.375-1.04-.375-1.414 0l-4.646 4.646-1.492-1.49 8.094-8.094c.39-.39.39-1.023 0-1.414l-5.17-5.17.97-.97c2.393 2.373 5.525 3.563 8.66 3.563 3.148 0 6.3-1.2 8.696-3.597.39-.39.39-1.023 0-1.414L62.09 22.32l1.63-1.63c.404.193.84.3 1.278.3.768 0 1.534-.292 2.117-.875 1.167-1.167 1.167-3.066 0-4.234-1.167-1.166-3.066-1.166-4.234 0-.917.92-1.102 2.286-.575 3.397l-1.628 1.628-7.955-7.955c-.392-.39-1.023-.39-1.414 0-2.323 2.323-3.604 5.412-3.604 8.697 0 3.27 1.27 6.34 3.57 8.66l-.97.97-5.172-5.17c-.39-.392-1.022-.392-1.413 0l-8.094 8.092-1.37-1.37 4.646-4.647c.39-.39.39-1.023 0-1.414L12.412.28c-.375-.374-1.04-.374-1.414 0L.293 10.987zM64.295 18.7c-.388-.387-.388-1.017 0-1.405.194-.194.448-.29.703-.29.254 0 .51.096.703.29.388.388.388 1.018 0 1.406-.388.39-1.017.388-1.405 0m-10.23 11.574L52.72 28.93c-1.944-1.946-3.017-4.532-3.017-7.283 0-2.415.826-4.703 2.343-6.542L67.89 30.947c-4.042 3.328-10.046 3.105-13.825-.673m5.442 19.93L55.57 54.14 51.7 50.275l3.94-3.94 3.865 3.868zM51.63 60.908l3.938-3.94 3.867 3.868-3.94 3.938-3.865-3.867zm5.28 5.28l3.94-3.94 3.867 3.868-3.938 3.938-3.87-3.866zm5.282 5.28l3.938-3.937 3.867 3.868-3.938 3.94-3.868-3.87zm13.16-5.424l-3.94 3.938-3.867-3.867 3.94-3.938 3.866 3.866zm-5.283-5.28l-3.94 3.937-3.866-3.867 3.938-3.938 3.867 3.867zm-13.088-5.21l3.938-3.94 3.867 3.87-3.938 3.937-3.868-3.867zm23.845 15.97L76.89 75.46 72.824 71.4l3.94-3.94 4.062 4.065zM67.474 76.75l3.938-3.937 4.064 4.062-3.938 3.94-4.064-4.065zM50.287 51.69l3.867 3.866-3.938 3.938-3.866-3.867 3.937-3.938zm-31.644 2.32L44.427 28.23 54.77 38.57 28.984 64.353c-2.852 2.85-7.49 2.85-10.342 0-2.85-2.853-2.85-7.49 0-10.342M15.55 6.248l-3.94 3.94L7.767 6.34l3.94-3.94 3.844 3.845zM7.673 16.952l3.94-3.938 3.844 3.845-3.938 3.937-3.847-3.845zm5.26 5.258l3.937-3.938 3.845 3.845-3.938 3.938-3.845-3.845zm5.257 5.26l3.938-3.94 3.845 3.846-3.938 3.94-3.845-3.847zm13.136-5.448l-3.938 3.94-3.845-3.846 3.94-3.94 3.843 3.846zm-5.26-5.258l-3.938 3.94-3.845-3.846 3.94-3.94 3.844 3.846zM13.027 11.6l3.938-3.94 3.844 3.844-3.94 3.94-3.843-3.845zM32.84 31.415l-4.04-4.04 3.938-3.94 4.04 4.042-3.938 3.938zm-9.393 1.312l3.937-3.94 4.04 4.04-3.938 3.94-4.04-4.04zM2.413 11.693l3.938-3.94 3.844 3.845-3.94 3.938-3.842-3.843z"/></svg>
